<svg width="11" height="13" viewBox="0 0 11 13" fill="none" xmlns="http://www.w3.org/2000/svg">
<path d="M2.77485 0.716355C4.49152 -0.254437 6.60159 -0.237469 8.30216 0.760802C9.986 1.7794 11.0094 3.59731 10.9999 5.55287C10.9607 7.4956 9.8633 9.32176 8.49158 10.7335C7.69987 11.552 6.8142 12.2757 5.85266 12.8899C5.75363 12.9456 5.64516 12.983 5.53259 13C5.42426 12.9955 5.31875 12.9644 5.22559 12.9093C3.75762 11.9864 2.46976 10.8084 1.42397 9.43185C0.54889 8.28281 0.0517271 6.89459 0 5.45573L0.00391775 5.24641C0.0753674 3.36826 1.11948 1.65248 2.77485 0.716355ZM6.21285 3.85012C5.51498 3.56141 4.71039 3.71827 4.17475 4.24744C3.63911 4.77662 3.47808 5.57373 3.76684 6.2666C4.05561 6.95946 4.73721 7.41141 5.4934 7.41141C5.9888 7.41488 6.465 7.22175 6.81592 6.87507C7.16684 6.52839 7.36331 6.05696 7.36156 5.56582C7.3642 4.81614 6.91072 4.13883 6.21285 3.85012Z" fill="#7A7A7A"/>
</svg>
