<svg width="25" height="18" viewBox="0 0 25 18" fill="none" xmlns="http://www.w3.org/2000/svg">
<path d="M18.75 16.7143C18.75 17.4243 18.1903 18 17.5 18L1.25 18C0.559666 18 -1.85702e-06 17.4243 -1.79495e-06 16.7143C-1.73287e-06 16.0042 0.559666 15.4286 1.25 15.4286L17.5 15.4286C18.1903 15.4286 18.75 16.0043 18.75 16.7143ZM1.25 10.2857L23.75 10.2857C24.4403 10.2857 25 9.71001 25 9C25 8.28995 24.4403 7.71429 23.75 7.71429L1.25 7.71429C0.559667 7.71429 -1.05847e-06 8.28994 -1.12054e-06 9C-1.18261e-06 9.71001 0.559666 10.2857 1.25 10.2857ZM1.25 2.57143L12.5 2.57143C13.1903 2.57143 13.75 1.99577 13.75 1.28572C13.75 0.575711 13.1903 8.7491e-07 12.5 8.14564e-07L1.25 -1.68942e-07C0.559667 -2.29293e-07 -3.84069e-07 0.57571 -4.4614e-07 1.28571C-5.08215e-07 1.99577 0.559667 2.57143 1.25 2.57143Z" fill="black"/>
</svg>
