<svg width="46" height="46" viewBox="0 0 46 46" fill="none" xmlns="http://www.w3.org/2000/svg">
<path fill-rule="evenodd" clip-rule="evenodd" d="M34.5 46H11.5C8.45001 46 5.52494 44.7884 3.36827 42.6317C1.2116 40.4751 0 37.55 0 34.5V11.5C0 8.45001 1.2116 5.52494 3.36827 3.36827C5.52494 1.2116 8.45001 0 11.5 0H34.5C37.55 0 40.4751 1.2116 42.6317 3.36827C44.7884 5.52494 46 8.45001 46 11.5V34.5C46 37.55 44.7884 40.4751 42.6317 42.6317C40.4751 44.7884 37.55 46 34.5 46Z" fill="#00D264"/>
<path fill-rule="evenodd" clip-rule="evenodd" d="M21.5625 12.9375H34.5C36.1597 12.9396 37.7567 12.3036 38.9607 11.1612C40.1647 10.0188 40.8835 8.45733 40.9684 6.79979C41.0533 5.14225 40.4979 3.51548 39.417 2.25599C38.3361 0.996491 36.8125 0.20064 35.1612 0.0330625C34.9413 0.0208437 34.7235 0 34.5 0H11.5C8.45001 0 5.52494 1.2116 3.36827 3.36827C1.2116 5.52494 0 8.45001 0 11.5V34.5C0 28.7813 2.27176 23.2968 6.31551 19.253C10.3593 15.2093 15.8438 12.9375 21.5625 12.9375Z" fill="#00EB78"/>
<path fill-rule="evenodd" clip-rule="evenodd" d="M34.5 23C32.2255 23 30.0021 23.6745 28.1109 24.9381C26.2198 26.2017 24.7458 27.9978 23.8754 30.0991C23.005 32.2005 22.7772 34.5128 23.221 36.7435C23.6647 38.9743 24.76 41.0234 26.3683 42.6317C27.9766 44.24 30.0257 45.3353 32.2565 45.779C34.4872 46.2228 36.7995 45.995 38.9009 45.1246C41.0022 44.2542 42.7983 42.7802 44.0619 40.8891C45.3255 38.9979 46 36.7745 46 34.5V11.5C46 14.55 44.7884 17.4751 42.6317 19.6317C40.4751 21.7884 37.55 23 34.5 23Z" fill="#00B950"/>
<path fill-rule="evenodd" clip-rule="evenodd" d="M15.5775 33.8481C15.7688 33.7937 15.9693 33.7795 16.1664 33.8065C16.3634 33.8335 16.5528 33.901 16.7224 34.0048C19.5802 35.7074 22.9616 36.3072 26.2307 35.6914C29.4997 35.0756 32.4311 33.2865 34.4735 30.6608C36.5159 28.0351 37.5286 24.7536 37.3211 21.4336C37.1136 18.1135 35.7002 14.9837 33.3467 12.6327C30.9933 10.2817 27.8619 8.87165 24.5416 8.66767C21.2214 8.46369 17.941 9.47987 15.3174 11.5251C12.6939 13.5703 10.908 16.5036 10.2956 19.7733C9.68329 23.043 10.2867 26.4237 11.9923 29.2797C12.0958 29.4489 12.163 29.6377 12.1897 29.8341C12.2164 30.0306 12.2021 30.2305 12.1476 30.4211C11.7472 31.8377 10.7812 35.2187 10.7812 35.2187L15.5775 33.8481ZM9.50116 30.7151C7.44613 27.2509 6.72639 23.1558 7.47709 19.1985C8.22779 15.2413 10.3973 11.6942 13.5782 9.22341C16.7591 6.75258 20.7326 5.52795 24.7526 5.7795C28.7725 6.03104 32.5624 7.74145 35.4105 10.5895C38.2586 13.4376 39.969 17.2275 40.2205 21.2474C40.472 25.2674 39.2474 29.2409 36.7766 32.4218C34.3058 35.6027 30.7587 37.7722 26.8015 38.5229C22.8442 39.2736 18.7491 38.5539 15.2849 36.4988C15.2849 36.4988 10.7015 37.8084 8.43166 38.4574C8.30834 38.4926 8.17788 38.4941 8.05377 38.4619C7.92966 38.4297 7.81641 38.3649 7.72575 38.2743C7.63508 38.1836 7.57029 38.0703 7.53808 37.9462C7.50588 37.8221 7.50742 37.6917 7.54256 37.5683L9.50116 30.7151Z" fill="white"/>
<path fill-rule="evenodd" clip-rule="evenodd" d="M15.7988 17.8149C16.0224 21.0333 17.3959 24.064 19.6687 26.3537C21.9415 28.6434 24.9619 30.0393 28.1786 30.2867H28.18C28.6936 30.3264 29.2097 30.2545 29.6928 30.0758C30.176 29.8972 30.6147 29.616 30.9788 29.2517L31.4805 28.75C31.7174 28.513 31.8505 28.1917 31.8507 27.8566V26.7914C31.8507 26.6579 31.8135 26.5269 31.7433 26.4133C31.6731 26.2997 31.5726 26.2079 31.4532 26.1481L28.2483 24.546C28.1133 24.4784 27.9605 24.455 27.8115 24.4791C27.6625 24.5033 27.5249 24.5737 27.4182 24.6804L26.0238 26.0748C25.9401 26.1585 25.8371 26.2202 25.7239 26.2546C25.6107 26.2889 25.4908 26.2948 25.3748 26.2717L25.3683 26.2703C23.9768 25.9921 22.6988 25.3081 21.6953 24.3047C20.6919 23.3012 20.0079 22.0232 19.7297 20.6317L19.7283 20.6252C19.7052 20.5092 19.7111 20.3893 19.7454 20.2761C19.7798 20.1629 19.8415 20.0599 19.9252 19.9762L21.3196 18.5818C21.4263 18.4751 21.4967 18.3375 21.5209 18.1885C21.545 18.0395 21.5216 17.8866 21.454 17.7517L19.8519 14.5468C19.7921 14.4274 19.7003 14.3269 19.5867 14.2567C19.4731 14.1865 19.3421 14.1493 19.2086 14.1493H18.303C18.0879 14.1494 17.8753 14.1946 17.6788 14.282C17.4823 14.3694 17.3064 14.4971 17.1623 14.6567L16.6851 15.1872C16.3712 15.5354 16.1307 15.9433 15.9778 16.3865C15.825 16.8297 15.7629 17.2991 15.7952 17.7668L15.7988 17.8149Z" fill="white"/>
</svg>
