<svg width="24" height="24" viewBox="0 0 24 24" fill="none" xmlns="http://www.w3.org/2000/svg">
<g clip-path="url(#clip0_1_2263)">
<path d="M20.4893 3.51115C15.8071 -1.17006 8.19257 -1.17006 3.51038 3.51115C-1.1698 8.19236 -1.1698 15.8089 3.51038 20.4901C5.85147 22.8302 8.9259 23.9997 12.0004 23.9997C15.0748 23.9997 18.1482 22.8302 20.4893 20.4901C25.1705 15.8089 25.1705 8.19236 20.4893 3.51115ZM16.9517 15.5378C17.3428 15.929 17.3428 16.5613 16.9517 16.9524C16.8589 17.0455 16.7486 17.1193 16.6272 17.1696C16.5058 17.2199 16.3757 17.2457 16.2443 17.2456C16.1129 17.2457 15.9828 17.2199 15.8614 17.1696C15.74 17.1193 15.6298 17.0455 15.537 16.9524L12.0003 13.4148L8.46467 16.9514C8.27704 17.139 8.02263 17.2444 7.75732 17.2446C7.62592 17.2447 7.4958 17.2188 7.37441 17.1685C7.25302 17.1182 7.14277 17.0444 7.04997 16.9514C6.65881 16.5602 6.65881 15.9269 7.04997 15.5368L10.5856 12.0001L7.04899 8.46347C6.65782 8.0723 6.65782 7.43901 7.04899 7.04883C7.43917 6.65766 8.07247 6.65766 8.46364 7.04883L12.0003 10.5855L15.5369 7.04883C15.9281 6.65766 16.5604 6.65766 16.9516 7.04883C17.3427 7.43901 17.3427 8.0723 16.9516 8.46347L13.4149 12.0001L16.9517 15.5378Z" fill="black"/>
</g>
<defs>
<clipPath id="clip0_1_2263">
<rect width="24" height="24" fill="white"/>
</clipPath>
</defs>
</svg>
