<svg width="50" height="46" viewBox="0 0 50 46" fill="none" xmlns="http://www.w3.org/2000/svg">
<path d="M13.0175 36.4616C11.3861 36.4586 9.7967 35.9442 8.47289 34.9908C7.14908 34.0373 6.15751 32.6929 5.63768 31.1465L5.56475 30.9069C5.33137 30.1765 5.20985 29.4151 5.20431 28.6483V14.4429L0.149682 31.3153C-0.159677 32.5158 0.0145329 33.7899 0.634838 34.8633C1.25514 35.9368 2.27199 36.7239 3.46665 37.0554L35.6841 45.6832C36.0863 45.7874 36.4884 45.8374 36.8843 45.8374C38.9594 45.8374 40.8554 44.4602 41.3867 42.4308L43.264 36.4616H13.0175ZM18.7472 14.5846C21.0453 14.5846 22.9142 12.7157 22.9142 10.4175C22.9142 8.11941 21.0453 6.25049 18.7472 6.25049C16.4491 6.25049 14.5802 8.11941 14.5802 10.4175C14.5802 12.7157 16.4491 14.5846 18.7472 14.5846Z" fill="#F89A00"/>
<path d="M44.7912 0H13.5384C12.1574 0.00165417 10.8335 0.550969 9.85704 1.52745C8.88056 2.50393 8.33124 3.82785 8.32959 5.2088V28.1275C8.32959 30.9986 10.6673 33.3363 13.5384 33.3363H44.7912C47.6623 33.3363 50 30.9986 50 28.1275V5.2088C50 2.33771 47.6623 0 44.7912 0ZM13.5384 4.16704H44.7912C45.0675 4.16704 45.3325 4.2768 45.5279 4.47217C45.7232 4.66754 45.833 4.93251 45.833 5.2088V19.9997L39.2511 12.3199C38.9031 11.9201 38.474 11.5991 37.9922 11.3781C37.5104 11.1572 36.9871 11.0414 36.4571 11.0385C35.9253 11.0412 35.4006 11.1604 34.9197 11.3875C34.4388 11.6146 34.0135 11.9442 33.6735 12.3532L25.9353 21.6415L23.4143 19.1267C22.7287 18.4422 21.7995 18.0578 20.8307 18.0578C19.8619 18.0578 18.9327 18.4422 18.2472 19.1267L12.4966 24.8752V5.2088C12.4966 4.93251 12.6064 4.66754 12.8018 4.47217C12.9971 4.2768 13.2621 4.16704 13.5384 4.16704Z" fill="#F89A00"/>
</svg>
