<svg width="21" height="27" viewBox="0 0 21 27" fill="none" xmlns="http://www.w3.org/2000/svg">
<path d="M20.3681 26.4407C20.3698 23.2238 19.9444 21.0451 19.5897 19.7883C19.362 18.9816 19.276 18.4046 18.4718 18.1682L17.2202 17.7461L14.6691 16.9963L10.4555 17.1082L6.24197 16.9963L2.43928 18.1139C1.63501 18.3503 1.00614 18.9816 0.778452 19.7884C0.42375 21.0452 -0.00168155 23.2238 4.99855e-06 26.4408C0.000163112 26.7409 0.243026 26.9847 0.543126 26.9847H4.02411L4.43135 26.4417L4.83855 26.9846H8.97148L10.8062 26.4417L11.9638 26.9846H16.0725L16.4798 26.4417L16.887 26.9846H19.825C20.1251 26.9846 20.368 26.7408 20.3681 26.4407Z" fill="#988393"/>
<path d="M20.9311 26.4154C20.9328 23.1984 20.5073 21.0198 20.1526 19.763C19.925 18.9562 19.2961 18.3249 18.4918 18.0885L14.6891 16.9709L10.4756 17.0829L6.26199 16.971L2.4593 18.0886C1.65503 18.325 1.02615 18.9563 0.798471 19.763C0.443769 21.0198 0.018338 23.1985 0.0200245 26.4155C0.0201826 26.7156 0.263046 26.9594 0.563145 26.9594H20.388C20.6881 26.9593 20.9309 26.7155 20.9311 26.4154Z" fill="#F89A00"/>
<path d="M20.0616 19.8037C19.8339 18.997 19.205 18.3657 18.4007 18.1293L17.1492 17.7615C17.7427 18.0944 18.1913 18.6497 18.3803 19.3193C18.7589 20.6606 19.213 22.986 19.2111 26.4195C19.211 26.7398 18.9518 27 18.6315 27H20.2969C20.597 27 20.8399 26.7562 20.84 26.4561C20.8417 23.2392 20.4163 21.0605 20.0616 19.8037Z" fill="#C77B00"/>
<path d="M13.1585 16.1728V13.7383H7.7771V16.1728L10.4678 18.9087L13.1585 16.1728Z" fill="#F6A96C"/>
<path d="M13.1587 16.1729L10.8115 17.1084C10.7101 17.1488 10.6232 17.2186 10.562 17.309C10.5008 17.3993 10.468 17.5059 10.468 17.615L9.92505 19.281H13.1587V16.1729H13.1587Z" fill="#DBEAFF"/>
<path d="M4.83891 26.9848V23.8911C4.83891 23.7831 4.796 23.6795 4.71963 23.6032C4.64326 23.5268 4.53967 23.4839 4.43166 23.4839C4.32365 23.4839 4.22007 23.5268 4.1437 23.6032C4.06732 23.6795 4.02441 23.7831 4.02441 23.8911V26.9848H4.83891Z" fill="#050505"/>
<path d="M10.4678 26.9845L6.86646 19.2739H13.8849L10.4678 26.9845Z" fill="#EDF4FF"/>
<path d="M16.835 26.962V23.8683C16.835 23.7603 16.7921 23.6567 16.7158 23.5803C16.6394 23.504 16.5358 23.461 16.4278 23.461C16.3198 23.461 16.2162 23.504 16.1398 23.5803C16.0635 23.6567 16.0205 23.7603 16.0205 23.8683V26.962H16.835ZM7.72506 16.5493H5.73488C5.66862 16.5493 5.60465 16.5736 5.55501 16.6175C5.50538 16.6613 5.47351 16.7219 5.4654 16.7876L5.08187 19.9036C5.07717 19.9418 5.08063 19.9805 5.09202 20.0173C5.10341 20.054 5.12247 20.0879 5.14794 20.1167C5.17342 20.1455 5.20472 20.1685 5.23978 20.1843C5.27484 20.2001 5.31285 20.2083 5.3513 20.2083H5.96884C6.0987 20.2083 6.17634 20.3528 6.10466 20.4611L5.21163 21.8098C5.16525 21.8561 5.13719 21.9176 5.13264 21.983C5.12809 22.0484 5.14735 22.1132 5.18686 22.1655L8.91956 26.9618H10.4157L7.72506 16.5493ZM13.1065 16.5493H15.0966C15.1629 16.5493 15.2269 16.5735 15.2765 16.6174C15.3261 16.6613 15.358 16.7219 15.3661 16.7876L15.7496 19.9036C15.7543 19.9418 15.7508 19.9805 15.7395 20.0173C15.7281 20.054 15.709 20.0879 15.6835 20.1167C15.6581 20.1455 15.6267 20.1685 15.5917 20.1843C15.5566 20.2001 15.5186 20.2083 15.4802 20.2083H14.8626C14.7328 20.2083 14.6551 20.3528 14.7268 20.4611L15.6198 21.8098C15.6662 21.8561 15.6943 21.9176 15.6988 21.983C15.7034 22.0484 15.6841 22.1132 15.6446 22.1655L11.9119 26.9618H10.4157L13.1065 16.5493Z" fill="black"/>
<path d="M16.2064 9.06181V3.3167C16.2064 2.63391 15.6529 2.08041 14.9701 2.08041C14.9347 2.08041 14.8997 2.07343 14.867 2.05989C14.8343 2.04634 14.8045 2.02648 14.7795 2.00145C14.7545 1.97642 14.7346 1.9467 14.7211 1.91399C14.7075 1.88128 14.7005 1.84623 14.7005 1.81082C14.7005 0.810755 13.8897 0 12.8897 0H4.57114C4.08652 0 3.71074 0.423218 3.76798 0.904411L4.7388 9.06187L16.2064 9.06181Z" fill="black"/>
<path d="M15.492 2.08041C15.4566 2.08041 15.4216 2.07343 15.3888 2.05989C15.3561 2.04634 15.3264 2.02648 15.3014 2.00145C15.2764 1.97642 15.2565 1.9467 15.243 1.91399C15.2294 1.88128 15.2224 1.84623 15.2224 1.81082C15.2224 0.810755 14.4117 0 13.4116 0H11.7939C12.794 0 13.6048 0.810755 13.6048 1.81082C13.6048 1.84623 13.6117 1.88128 13.6253 1.91399C13.6388 1.9467 13.6587 1.97642 13.6837 2.00145C13.7088 2.02648 13.7385 2.04634 13.7712 2.05989C13.8039 2.07343 13.839 2.08041 13.8744 2.08041C14.5571 2.08041 15.1106 2.63391 15.1106 3.31675L14.5714 9.06187H16.1891L16.7283 3.31675C16.7283 2.63396 16.1748 2.08041 15.492 2.08041Z" fill="#2F2F2F"/>
<path d="M15.5627 7.46387H15.2223L14.6831 10.65H15.5627C16.4425 10.65 17.1557 9.93677 17.1557 9.05697C17.1557 8.17712 16.4425 7.46387 15.5627 7.46387Z" fill="#F6A96C"/>
<path d="M5.34769 10.65H6.22727L5.68805 7.46387H5.34769C4.46789 7.46387 3.75464 8.17712 3.75464 9.05692C3.75464 9.93677 4.46789 10.65 5.34769 10.65Z" fill="#FFBD86"/>
<path d="M12.5448 3.33728C12.3607 3.47853 12.1451 3.52676 11.8992 3.68982C10.6808 4.49789 8.71843 5.47872 6.16463 5.68901C6.05585 5.69797 5.96219 5.77002 5.9283 5.8738C5.76874 6.36346 5.68771 6.87531 5.68823 7.39032V10.7335C5.68823 13.1212 7.39892 15.1041 9.64645 15.4932C9.90934 15.5388 10.1796 15.5085 10.4553 15.5085C13.0881 15.5085 14.6832 13.4004 14.6832 10.7334V7.39027C14.6832 5.60558 14.2665 4.15521 12.8453 3.31931C12.7991 3.29209 12.7458 3.27926 12.6923 3.28246C12.6388 3.28566 12.5874 3.30475 12.5448 3.33728Z" fill="#FED2A4"/>
<path d="M12.5453 3.22942C12.3353 3.39011 12.1199 3.54359 11.8995 3.68959C12.942 4.57534 13.6052 5.90408 13.6052 7.39029V10.7334C13.6052 13.1211 11.8945 15.1038 9.64697 15.4929C9.91409 15.5392 10.1847 15.5625 10.4558 15.5625C13.0886 15.5625 15.2229 13.4005 15.2229 10.7334V7.39024C15.2229 5.60556 14.267 4.04729 12.8457 3.2114C12.7995 3.18417 12.7462 3.17135 12.6927 3.17456C12.6392 3.17777 12.5878 3.19687 12.5453 3.22942Z" fill="#FFBD86"/>
<path d="M10.4318 13.1134C10.0223 13.1134 9.62078 13.0332 9.22998 12.8729C9.1805 12.8526 9.1355 12.8227 9.09755 12.785C9.05961 12.7474 9.02946 12.7026 9.00882 12.6532C8.98819 12.6039 8.97748 12.551 8.9773 12.4975C8.97712 12.444 8.98747 12.391 9.00777 12.3416C9.02806 12.2921 9.05789 12.2471 9.09557 12.2091C9.13326 12.1712 9.17805 12.141 9.22739 12.1204C9.27674 12.0997 9.32966 12.089 9.38315 12.0889C9.43663 12.0887 9.48962 12.0991 9.53909 12.1194C10.1287 12.3612 10.7318 12.3597 11.3827 12.115C11.4327 12.0962 11.486 12.0874 11.5395 12.0892C11.5929 12.0909 11.6455 12.1032 11.6942 12.1253C11.7429 12.1474 11.7868 12.1788 11.8233 12.2179C11.8599 12.2569 11.8884 12.3028 11.9072 12.3528C11.926 12.4029 11.9348 12.4561 11.933 12.5096C11.9313 12.563 11.919 12.6156 11.8969 12.6643C11.8748 12.713 11.8434 12.7569 11.8043 12.7934C11.7653 12.83 11.7195 12.8585 11.6694 12.8773C11.2509 13.0347 10.8375 13.1134 10.4318 13.1134Z" fill="#FF8086"/>
<path d="M8.17507 9.76401C8.06706 9.76401 7.96348 9.72111 7.8871 9.64473C7.81073 9.56836 7.76782 9.46477 7.76782 9.35677V8.73464C7.76782 8.62663 7.81073 8.52305 7.8871 8.44667C7.96348 8.3703 8.06706 8.32739 8.17507 8.32739C8.28308 8.32739 8.38666 8.3703 8.46304 8.44667C8.53941 8.52305 8.58232 8.62663 8.58232 8.73464V9.35677C8.58233 9.41025 8.5718 9.46321 8.55133 9.51262C8.53087 9.56203 8.50087 9.60693 8.46305 9.64475C8.42524 9.68257 8.38034 9.71256 8.33093 9.73303C8.28151 9.75349 8.22855 9.76402 8.17507 9.76401ZM12.6864 9.76401C12.5784 9.76401 12.4748 9.72111 12.3984 9.64473C12.322 9.56836 12.2791 9.46477 12.2791 9.35677V8.73464C12.2791 8.5097 12.4614 8.32739 12.6864 8.32739C12.9113 8.32739 13.0936 8.5097 13.0936 8.73464V9.35677C13.0936 9.46477 13.0507 9.56836 12.9743 9.64473C12.898 9.72111 12.7944 9.76401 12.6864 9.76401Z" fill="black"/>
<path d="M7.77715 16.1729L10.1244 17.1084C10.2257 17.1488 10.3126 17.2186 10.3738 17.309C10.4351 17.3993 10.4678 17.5059 10.4678 17.615V19.281H7.7771L7.77715 16.1729Z" fill="#EDF4FF"/>
<path d="M9.00806 20.0839L8.05895 20.4687C7.71363 20.6087 7.33643 20.3546 7.33643 19.982V18.5658C7.33643 18.1932 7.71369 17.939 8.05895 18.0791L9.00806 18.4639V20.0839Z" fill="#FF8086"/>
<path d="M8.79639 19.2739C8.79639 19.5682 8.87334 19.8444 9.00773 20.084L9.92706 19.7113V18.8366L9.00773 18.4639C8.86885 18.7112 8.79606 18.9902 8.79639 19.2739Z" fill="#E5646E"/>
<path d="M10.9839 19.7114L12.6682 20.3942C13.0135 20.5342 13.0319 20.3548 13.0319 19.9822V18.5659C13.0319 18.1933 13.0135 18.0139 12.6682 18.1539L10.9839 18.8367V19.7114Z" fill="#FF8086"/>
<path d="M12.8522 18.079L12.668 18.1537C12.7882 18.2481 12.8688 18.3941 12.8688 18.5658V19.982C12.8688 20.1538 12.7882 20.2996 12.668 20.394L12.8522 20.4687C13.1975 20.6087 13.5747 20.3546 13.5747 19.982V18.5658C13.5747 18.1932 13.1975 17.9391 12.8522 18.079Z" fill="#E5646E"/>
<path d="M11.4012 19.274C11.4012 19.8263 11.0078 20.2197 10.4554 20.2197C10.3519 20.2197 10.252 20.2583 10.158 20.2291C9.75094 20.1025 9.45532 19.7227 9.45532 19.274C9.45532 18.8257 9.75031 18.4462 10.1568 18.3192C10.2511 18.2898 10.3514 18.3282 10.4554 18.3282C11.0078 18.3282 11.4012 18.7216 11.4012 19.274Z" fill="#FF8086"/>
<path d="M10.4554 18.2739C10.3513 18.2739 10.251 18.2898 10.1567 18.3194C10.5632 18.4464 10.8582 18.8257 10.8582 19.274C10.8582 19.7224 10.5632 20.1017 10.1567 20.2287C10.2511 20.2582 10.3513 20.2742 10.4554 20.2742C11.0077 20.2742 11.4555 19.8264 11.4555 19.2741C11.4555 18.7217 11.0077 18.2739 10.4554 18.2739Z" fill="#E5646E"/>
</svg>
