<svg width="7" height="12" viewBox="0 0 7 12" fill="none" xmlns="http://www.w3.org/2000/svg">
<path fill-rule="evenodd" clip-rule="evenodd" d="M0.618257 3.95765e-07C0.72532 4.05124e-07 0.833207 0.0255474 0.932034 0.0805134C1.553 0.426563 7 3.5294 7 5.99974C7 8.46931 1.55382 11.5729 0.932033 11.919C0.639668 12.0823 0.259183 11.991 0.0862355 11.7146C-0.0875358 11.4382 0.00964459 11.0821 0.302833 10.9188C2.41444 9.7428 5.76466 7.36768 5.76466 5.99974C5.76466 4.62948 2.41444 2.25513 0.302834 1.08073C0.00964548 0.917381 -0.0875349 0.561266 0.0862365 0.284891C0.201535 0.102189 0.406602 3.77261e-07 0.618257 3.95765e-07Z" fill="#626262"/>
</svg>
