<svg width="16" height="18" viewBox="0 0 16 18" fill="none" xmlns="http://www.w3.org/2000/svg">
<path d="M12.0327 12.1182L9.37733 16.2697C8.68999 17.3413 7.12649 17.3378 6.44245 16.2707L3.78274 12.1193C1.4426 12.6603 0 13.6515 0 14.8359C0 16.8912 4.07559 18 7.91016 18C11.7447 18 15.8203 16.8912 15.8203 14.8359C15.8203 13.6506 14.3757 12.6589 12.0327 12.1182Z" fill="#F89800"/>
<path d="M7.71094 0C4.54811 0 1.91016 2.54777 1.91016 5.80078C1.91016 7.03835 2.28204 8.14191 2.99575 9.17599L7.26702 15.8409C7.47423 16.1649 7.94807 16.1643 8.15486 15.8409L12.4447 9.15332C13.143 8.16609 13.5117 7.00689 13.5117 5.80078C13.5117 2.60223 10.9095 0 7.71094 0ZM7.71094 8.4375C6.25712 8.4375 5.07422 7.2546 5.07422 5.80078C5.07422 4.34696 6.25712 3.16406 7.71094 3.16406C9.16475 3.16406 10.3477 4.34696 10.3477 5.80078C10.3477 7.2546 9.16475 8.4375 7.71094 8.4375Z" fill="#F89800"/>
</svg>
