<svg width="29" height="29" viewBox="0 0 29 29" fill="none" xmlns="http://www.w3.org/2000/svg">
<g opacity="0.5" clip-path="url(#clip0_1_2602)">
<path fill-rule="evenodd" clip-rule="evenodd" d="M13.2916 0.301982C6.78504 0.301982 1.51041 5.57661 1.51041 12.0832C1.51041 18.5898 6.78504 23.8644 13.2916 23.8644C19.7982 23.8644 25.0728 18.5898 25.0728 12.0832C25.0728 5.57661 19.7982 0.301982 13.2916 0.301982ZM3.3229 12.0832C3.3229 6.57763 7.78605 2.11448 13.2916 2.11448C18.7972 2.11448 23.2603 6.57763 23.2603 12.0832C23.2603 17.5888 18.7972 22.0519 13.2916 22.0519C7.78605 22.0519 3.3229 17.5888 3.3229 12.0832Z" fill="#444150"/>
<path d="M23.5992 21.1091C23.2452 20.7552 22.6714 20.7552 22.3175 21.1091C21.9636 21.463 21.9636 22.0368 22.3175 22.3908L27.1507 27.224C27.5046 27.5779 28.0784 27.5779 28.4323 27.224C28.7863 26.8701 28.7863 26.2963 28.4324 25.9424L23.5992 21.1091Z" fill="#444150"/>
</g>
<defs>
<clipPath id="clip0_1_2602">
<rect width="28.2985" height="28.2985" fill="white" transform="scale(1.02479)"/>
</clipPath>
</defs>
</svg>
