<svg width="18" height="18" viewBox="0 0 18 18" fill="none" xmlns="http://www.w3.org/2000/svg">
<path d="M8.80078 0C5.63795 0 3 2.54777 3 5.80078C3 7.03835 3.37188 8.14191 4.08559 9.17599L8.35686 15.8409C8.56407 16.1649 9.03791 16.1643 9.2447 15.8409L13.5345 9.15332C14.2328 8.16609 14.6016 7.00689 14.6016 5.80078C14.6016 2.60223 11.9993 0 8.80078 0ZM8.80078 8.4375C7.34696 8.4375 6.16406 7.2546 6.16406 5.80078C6.16406 4.34696 7.34696 3.16406 8.80078 3.16406C10.2546 3.16406 11.4375 4.34696 11.4375 5.80078C11.4375 7.2546 10.2546 8.4375 8.80078 8.4375Z" fill="#F89800"/>
<path d="M13.1226 12.1182L10.4672 16.2697C9.77984 17.3413 8.21633 17.3378 7.5323 16.2707L4.87259 12.1193C2.53245 12.6603 1.08984 13.6515 1.08984 14.8359C1.08984 16.8912 5.16544 18 9 18C12.8346 18 16.9102 16.8912 16.9102 14.8359C16.9102 13.6506 15.4656 12.6589 13.1226 12.1182Z" fill="#F89800"/>
</svg>
