<svg width="430" height="407" viewBox="0 0 430 407" fill="none" xmlns="http://www.w3.org/2000/svg">
<rect y="127" width="430" height="280" fill="#FEF5E5"/>
<g filter="url(#filter0_d_1_675)">
<rect width="430" height="131" fill="white"/>
</g>
<path d="M28.0193 28.2831C27.2806 28.2831 26.6163 28.1397 26.0265 27.8531C25.4366 27.5609 24.968 27.1612 24.6207 26.654C24.2734 26.1413 24.0997 25.5487 24.0997 24.8761H26.134C26.156 25.3723 26.3352 25.7664 26.6715 26.0586C27.0133 26.3508 27.4405 26.4969 27.9532 26.4969C28.5541 26.4969 29.0392 26.326 29.4086 25.9842C29.7779 25.6369 30.0453 25.1518 30.2107 24.5288C30.3816 23.9059 30.467 23.1782 30.467 22.3457C30.467 22.1804 30.4615 22.0205 30.4505 21.8661C30.445 21.7063 30.4284 21.5409 30.4009 21.37C30.2961 21.9764 30.0977 22.467 29.8055 22.8419C29.5133 23.2113 29.1577 23.4814 28.7388 23.6523C28.3253 23.8177 27.876 23.9004 27.3909 23.9004C26.7238 23.9004 26.134 23.757 25.6213 23.4704C25.1141 23.1782 24.7144 22.7785 24.4222 22.2713C24.1301 21.7586 23.984 21.1715 23.984 20.51C23.984 19.8264 24.1466 19.2282 24.4718 18.7156C24.8026 18.2029 25.2574 17.8059 25.8363 17.5248C26.4206 17.2436 27.0932 17.1031 27.854 17.1031C28.4934 17.1031 29.0888 17.2326 29.6401 17.4917C30.1969 17.7508 30.682 18.1202 31.0955 18.5998C31.509 19.0739 31.8315 19.6417 32.063 20.3032C32.3001 20.9648 32.4186 21.7007 32.4186 22.5111C32.4186 23.6854 32.2559 24.7052 31.9307 25.5707C31.6054 26.4363 31.1176 27.1061 30.467 27.5802C29.8165 28.0488 29.0006 28.2831 28.0193 28.2831ZM27.8705 22.2961C28.2068 22.2961 28.5155 22.2245 28.7967 22.0811C29.0833 21.9378 29.3121 21.7393 29.483 21.4857C29.6539 21.2322 29.7393 20.94 29.7393 20.6092C29.7393 20.08 29.5519 19.661 29.177 19.3523C28.8077 19.0436 28.3667 18.8892 27.854 18.8892C27.3413 18.8892 26.903 19.0436 26.5392 19.3523C26.1808 19.661 26.0017 20.08 26.0017 20.6092C26.0017 21.1384 26.1836 21.5519 26.5474 21.8496C26.9113 22.1473 27.3523 22.2961 27.8705 22.2961ZM34.2461 26.6292C34.2461 26.2543 34.3729 25.9401 34.6265 25.6865C34.8801 25.4329 35.2053 25.3061 35.6022 25.3061C35.9992 25.3061 36.3299 25.4329 36.5946 25.6865C36.8592 25.9401 36.9915 26.2543 36.9915 26.6292C36.9915 26.9986 36.8592 27.3073 36.5946 27.5554C36.3299 27.7979 35.9992 27.9192 35.6022 27.9192C35.2053 27.9192 34.8801 27.7952 34.6265 27.5471C34.3729 27.299 34.2461 26.9931 34.2461 26.6292ZM34.2461 21.7007C34.2461 21.3259 34.3729 21.0116 34.6265 20.7581C34.8801 20.5045 35.2053 20.3777 35.6022 20.3777C35.9992 20.3777 36.3299 20.5045 36.5946 20.7581C36.8592 21.0116 36.9915 21.3259 36.9915 21.7007C36.9915 22.0701 36.8592 22.3788 36.5946 22.6269C36.3299 22.8695 35.9992 22.9907 35.6022 22.9907C35.2053 22.9907 34.8801 22.8667 34.6265 22.6186C34.3729 22.3706 34.2461 22.0646 34.2461 21.7007ZM43.9158 17.2023H45.8012V23.9996H47.67V25.67H45.8012V28.0515H43.8662V25.67H38.425V24.1981L43.9158 17.2023ZM43.9654 20.0965L40.7404 24.1981H43.9654V20.0965ZM50.9757 17.2519H52.4476V28.0515H50.4961V19.5838C50.2039 19.7161 49.9172 19.8181 49.6361 19.8898C49.3549 19.9614 49.0738 19.9973 48.7926 19.9973V18.1284C49.1675 18.0898 49.5313 18.0044 49.8841 17.8721C50.237 17.7343 50.6008 17.5275 50.9757 17.2519Z" fill="black"/>
<path fill-rule="evenodd" clip-rule="evenodd" d="M344.541 17.6411H343.536C342.981 17.6411 342.531 18.0628 342.531 18.583V26.746C342.531 27.2662 342.981 27.6878 343.536 27.6878H344.541C345.095 27.6878 345.545 27.2662 345.545 26.746V18.583C345.545 18.0628 345.095 17.6411 344.541 17.6411ZM338.513 19.6505H339.518C340.072 19.6505 340.522 20.0823 340.522 20.6149V26.7234C340.522 27.256 340.072 27.6878 339.518 27.6878H338.513C337.958 27.6878 337.508 27.256 337.508 26.7234V20.6149C337.508 20.0823 337.958 19.6505 338.513 19.6505ZM334.494 21.66H333.489C332.934 21.66 332.484 22.1098 332.484 22.6647V26.6833C332.484 27.2382 332.934 27.688 333.489 27.688H334.494C335.049 27.688 335.498 27.2382 335.498 26.6833V22.6647C335.498 22.1098 335.049 21.66 334.494 21.66ZM329.471 23.6692H328.466C327.911 23.6692 327.461 24.119 327.461 24.6738V26.6832C327.461 27.238 327.911 27.6878 328.466 27.6878H329.471C330.026 27.6878 330.475 27.238 330.475 26.6832V24.6738C330.475 24.119 330.026 23.6692 329.471 23.6692Z" fill="black"/>
<path fill-rule="evenodd" clip-rule="evenodd" d="M364.243 18.8265C366.469 18.8266 368.61 19.6821 370.224 21.216C370.345 21.3344 370.54 21.3329 370.659 21.2126L371.821 20.0405C371.881 19.9795 371.915 19.8969 371.915 19.8109C371.914 19.7249 371.879 19.6427 371.818 19.5824C367.583 15.524 360.902 15.524 356.668 19.5824C356.606 19.6426 356.571 19.7249 356.571 19.8108C356.57 19.8968 356.604 19.9795 356.665 20.0405L357.826 21.2126C357.946 21.3331 358.14 21.3346 358.262 21.216C359.875 19.682 362.017 18.8265 364.243 18.8265ZM364.243 22.6399C365.466 22.6398 366.646 23.0944 367.552 23.9155C367.675 24.032 367.868 24.0294 367.988 23.9098L369.148 22.7376C369.209 22.6762 369.243 22.5928 369.242 22.5061C369.241 22.4194 369.205 22.3367 369.143 22.2765C366.382 19.7082 362.106 19.7082 359.345 22.2765C359.283 22.3367 359.247 22.4195 359.246 22.5062C359.246 22.5929 359.28 22.6762 359.341 22.7376L360.501 23.9098C360.62 24.0294 360.813 24.032 360.936 23.9155C361.842 23.095 363.021 22.6404 364.243 22.6399ZM366.567 25.2054C366.569 25.2923 366.534 25.3761 366.472 25.4369L364.466 27.462C364.407 27.5215 364.327 27.555 364.243 27.555C364.159 27.555 364.079 27.5215 364.02 27.462L362.013 25.4369C361.951 25.376 361.917 25.2922 361.919 25.2053C361.921 25.1184 361.958 25.0361 362.023 24.9778C363.304 23.8939 365.181 23.8939 366.463 24.9778C366.527 25.0361 366.565 25.1184 366.567 25.2054Z" fill="black"/>
<path opacity="0.35" d="M383.442 19.2177C383.442 18.0155 384.417 17.0409 385.619 17.0409H405.377C406.58 17.0409 407.554 18.0155 407.554 19.2177V26.9202C407.554 28.1224 406.58 29.097 405.377 29.097H385.619C384.417 29.097 383.442 28.1224 383.442 26.9202V19.2177Z" stroke="black" stroke-width="1.00467"/>
<path opacity="0.4" d="M408.71 21.562V25.5807C409.518 25.2403 410.044 24.4486 410.044 23.5714C410.044 22.6941 409.518 21.9024 408.71 21.562Z" fill="black"/>
<path d="M385.25 20.2221C385.25 19.4823 385.85 18.8826 386.59 18.8826H404.205C404.945 18.8826 405.545 19.4823 405.545 20.2221V25.9119C405.545 26.6518 404.945 27.2515 404.205 27.2515H386.59C385.85 27.2515 385.25 26.6518 385.25 25.9119V20.2221Z" fill="black"/>
<defs>
<filter id="filter0_d_1_675" x="-14" y="-14" width="458" height="159" filterUnits="userSpaceOnUse" color-interpolation-filters="sRGB">
<feFlood flood-opacity="0" result="BackgroundImageFix"/>
<feColorMatrix in="SourceAlpha" type="matrix" values="0 0 0 0 0 0 0 0 0 0 0 0 0 0 0 0 0 0 127 0" result="hardAlpha"/>
<feOffset/>
<feGaussianBlur stdDeviation="7"/>
<feComposite in2="hardAlpha" operator="out"/>
<feColorMatrix type="matrix" values="0 0 0 0 0 0 0 0 0 0 0 0 0 0 0 0 0 0 0.25 0"/>
<feBlend mode="normal" in2="BackgroundImageFix" result="effect1_dropShadow_1_675"/>
<feBlend mode="normal" in="SourceGraphic" in2="effect1_dropShadow_1_675" result="shape"/>
</filter>
</defs>
</svg>
