<svg width="14" height="14" viewBox="0 0 14 14" fill="none" xmlns="http://www.w3.org/2000/svg">
<path d="M8.21635 1.01197L9.45018 3.49618C9.61644 3.83974 10.0627 4.16569 10.439 4.23616L12.6704 4.60615C14.0968 4.844 14.4293 5.8835 13.4055 6.92299L11.6641 8.67603C11.3753 8.96674 11.2091 9.53934 11.3053 9.95338L11.8041 12.1205C12.1979 13.8295 11.2878 14.499 9.79146 13.6004L7.70006 12.3495C7.32378 12.1205 6.69374 12.1205 6.31746 12.3495L4.22607 13.6004C2.72971 14.4902 1.81965 13.8295 2.21343 12.1205L2.71221 9.95338C2.79097 9.53053 2.62471 8.95793 2.33594 8.66723L0.594563 6.91418C-0.429258 5.8835 -0.0967347 4.844 1.32961 4.59734L3.56102 4.22735C3.9373 4.16569 4.38358 3.83094 4.54984 3.48737L5.78368 1.00316C6.45747 -0.335851 7.54255 -0.335851 8.21635 1.01197Z" fill="#F89300"/>
</svg>
