<svg width="24" height="24" viewBox="0 0 24 24" fill="none" xmlns="http://www.w3.org/2000/svg">
<path d="M20.4891 3.51098C15.8069 -1.17033 8.19233 -1.17033 3.51013 3.51098C-1.17004 8.19229 -1.17004 15.809 3.51013 20.4903C5.85123 22.8305 8.92566 24 12.0001 24C15.0746 24 18.148 22.8304 20.4891 20.4903C25.1703 15.809 25.1703 8.19229 20.4891 3.51098ZM16.9514 15.5379C17.3426 15.929 17.3426 16.5614 16.9514 16.9525C16.8586 17.0456 16.7484 17.1194 16.627 17.1697C16.5056 17.22 16.3755 17.2458 16.2441 17.2457C16.1127 17.2458 15.9825 17.22 15.8612 17.1697C15.7398 17.1194 15.6295 17.0456 15.5367 16.9525L12.0001 13.4148L8.46442 16.9515C8.2768 17.1391 8.02239 17.2445 7.75708 17.2447C7.62568 17.2448 7.49555 17.219 7.37417 17.1686C7.25278 17.1183 7.14253 17.0445 7.04973 16.9515C6.65856 16.5603 6.65856 15.927 7.04973 15.5368L10.5854 12.0001L7.04874 8.46341C6.65758 8.07223 6.65758 7.43892 7.04874 7.04873C7.43893 6.65755 8.07222 6.65755 8.46339 7.04873L12 10.5854L15.5367 7.04873C15.9278 6.65755 16.5602 6.65755 16.9513 7.04873C17.3425 7.43892 17.3425 8.07223 16.9513 8.46341L13.4147 12.0001L16.9514 15.5379Z" fill="black"/>
</svg>
