<svg width="14" height="14" viewBox="0 0 14 14" fill="none" xmlns="http://www.w3.org/2000/svg">
<path d="M12.98 5.64465C12.7685 5.51627 12.5786 5.35276 12.4175 5.16054C12.4338 4.89292 12.4949 4.63035 12.5979 4.38472C12.7873 3.82649 13.0014 3.19414 12.6577 2.70255C12.314 2.21095 11.665 2.22659 11.0955 2.24019C10.8438 2.26724 10.5895 2.2493 10.3436 2.18715C10.2126 1.96448 10.119 1.72002 10.067 1.46437C9.90552 0.889824 9.7213 0.24048 9.15562 0.0460163C8.61013 -0.137568 8.10499 0.266317 7.65844 0.621247C7.46575 0.805047 7.24248 0.950458 6.99967 1.05029C6.75433 0.951271 6.52858 0.805823 6.33375 0.621247C5.8885 0.268357 5.38532 -0.139608 4.83722 0.0466963C4.27284 0.23844 4.08862 0.889824 3.92588 1.46437C3.87389 1.71919 3.78125 1.96306 3.65183 2.18579C3.40546 2.24777 3.15088 2.26616 2.89868 2.24019C2.32715 2.22387 1.68336 2.20619 1.3364 2.70255C0.989445 3.1989 1.20621 3.82649 1.39629 4.38404C1.50073 4.6293 1.56266 4.89198 1.57921 5.15986C1.41847 5.35233 1.22872 5.51609 1.01744 5.64465C0.54094 5.98462 0 6.37151 0 6.99978C0 7.62804 0.54094 8.01357 1.01744 8.3549C1.22867 8.48326 1.41842 8.64679 1.57921 8.83902C1.5644 9.10679 1.50423 9.3697 1.4015 9.61551C1.21272 10.1731 0.99921 10.8054 1.34226 11.297C1.68531 11.7886 2.33236 11.773 2.90454 11.7594C3.15644 11.7323 3.41091 11.7502 3.65704 11.8124C3.78748 12.0353 3.8808 12.2797 3.93304 12.5352C4.09448 13.1097 4.2787 13.7591 4.84438 13.9535C4.93507 13.9839 5.0297 13.9995 5.12494 13.9998C5.58269 13.9312 6.00814 13.7137 6.34091 13.3783C6.5336 13.1945 6.75686 13.0491 6.99967 12.9493C7.24502 13.0483 7.47077 13.1937 7.6656 13.3783C8.1115 13.7339 8.61664 14.1398 9.16278 13.9529C9.72716 13.7611 9.91138 13.1097 10.0741 12.5359C10.1263 12.2806 10.2196 12.0364 10.3501 11.8138C10.5955 11.7514 10.8493 11.733 11.1007 11.7594C11.6722 11.7736 12.316 11.7934 12.6629 11.297C13.0099 10.8007 12.7931 10.1731 12.6031 9.61483C12.4993 9.36979 12.4374 9.10769 12.4201 8.84038C12.581 8.64773 12.771 8.48396 12.9826 8.35558C13.4591 8.01561 14 7.62804 14 6.99978C14 6.37151 13.4571 5.9853 12.98 5.64465Z" fill="url(#paint0_radial_1_1223)"/>
<path d="M6.34872 8.86962C6.28461 8.86974 6.2211 8.85659 6.16188 8.83091C6.10266 8.80524 6.0489 8.76755 6.00372 8.72003L4.70182 7.36015C4.61558 7.26348 4.56863 7.13562 4.57086 7.0035C4.57309 6.87139 4.62433 6.74534 4.71378 6.65191C4.80323 6.55847 4.92391 6.50495 5.05039 6.50262C5.17687 6.50029 5.29928 6.54933 5.39183 6.63941L6.39429 7.68652L8.6596 5.91187C8.76318 5.83072 8.89339 5.79588 9.02157 5.81501C9.14975 5.83413 9.26541 5.90566 9.3431 6.01386C9.42079 6.12206 9.45415 6.25807 9.43583 6.39195C9.41752 6.52584 9.34904 6.64665 9.24545 6.7278L6.64165 8.76763C6.55712 8.83379 6.45435 8.86957 6.34872 8.86962Z" fill="white"/>
<defs>
<radialGradient id="paint0_radial_1_1223" cx="0" cy="0" r="1" gradientUnits="userSpaceOnUse" gradientTransform="translate(7 7) rotate(90) scale(7)">
<stop stop-color="#F8A400"/>
<stop offset="1" stop-color="#F89300"/>
</radialGradient>
</defs>
</svg>
