<svg width="25" height="26" viewBox="0 0 25 26" fill="none" xmlns="http://www.w3.org/2000/svg">
<path d="M8.72997 24.4053V20.4303C8.72997 19.4156 9.56865 18.593 10.6032 18.593H14.385C14.8818 18.593 15.3583 18.7866 15.7096 19.1311C16.0609 19.4757 16.2582 19.943 16.2582 20.4303V24.4053C16.2551 24.8272 16.4238 25.2328 16.7268 25.5322C17.0298 25.8316 17.4422 26 17.8723 26H20.4524C21.6574 26.003 22.8141 25.5357 23.6673 24.701C24.5205 23.8664 25 22.7331 25 21.5512V10.2269C25 9.27219 24.5685 8.36659 23.8219 7.75407L15.0448 0.878629C13.518 -0.32687 11.3304 -0.287947 9.8492 0.971072L1.27238 7.75407C0.490448 8.34853 0.0230951 9.25682 0 10.2269V21.5396C0 24.003 2.03603 26 4.5476 26H7.0688C7.96214 26 8.68815 25.2931 8.69463 24.4169L8.72997 24.4053Z" fill="#A7A7A7"/>
</svg>
