<svg width="15" height="20" viewBox="0 0 15 20" fill="none" xmlns="http://www.w3.org/2000/svg">
<path d="M13.2983 0H1.76419C0.824813 0 0 0.777473 0 1.69774V18.8638C0 19.1719 0.0852188 19.4286 0.222563 19.627C0.302353 19.7426 0.408882 19.8369 0.532972 19.9019C0.657061 19.9668 0.79499 20.0005 0.934875 19.9999C1.203 19.9999 1.48847 19.8798 1.75209 19.6533L6.91247 15.2453C7.07184 15.1083 7.30078 15.0299 7.53881 15.0299C7.77675 15.0299 8.00522 15.1083 8.16506 15.2457L13.3082 19.6526C13.5728 19.8798 13.8385 20 14.1062 20C14.5588 20 15 19.6488 15 18.8639V1.69774C15 0.777473 14.2377 0 13.2983 0Z" fill="#BDBDBD"/>
</svg>
