<svg width="18" height="18" viewBox="0 0 18 18" fill="none" xmlns="http://www.w3.org/2000/svg">
<path d="M11.2499 9.74997C10.8352 9.74997 10.4999 10.086 10.4999 10.4999V13.5C10.4999 13.9132 10.1639 14.25 9.74986 14.25H7.49988V2.99998C7.49988 2.35947 7.0919 1.78723 6.47842 1.57422L6.25638 1.49994H9.74986C10.1639 1.49994 10.4999 1.83666 10.4999 2.25003V4.50003C10.4999 4.91392 10.8352 5.24998 11.2499 5.24998C11.6646 5.24998 11.9998 4.91392 11.9998 4.50003V2.25003C11.9998 1.00954 10.9903 3.51562e-05 9.74986 3.51562e-05H1.68748C1.65894 3.51562e-05 1.63503 0.0127968 1.60729 0.0165234C1.57115 0.0135 1.5367 0 1.50003 0C0.672779 3.51562e-05 0 0.672714 0 1.49997V14.9999C0 15.6405 0.407984 16.2127 1.02145 16.4257L5.53495 17.9302C5.68794 17.9775 5.8401 18 5.99995 18C6.82721 18 7.49984 17.3272 7.49984 16.5V15.75H9.74982C10.9903 15.75 11.9998 14.7405 11.9998 13.5V10.4999C11.9998 10.086 11.6646 9.74997 11.2499 9.74997H11.2499Z" fill="white"/>
<path d="M17.7801 6.96975L14.78 3.9698C14.6752 3.86484 14.5416 3.79334 14.3961 3.76435C14.2506 3.73535 14.0997 3.75017 13.9627 3.80692C13.6829 3.92325 13.4999 4.19694 13.4999 4.50003V6.75002H10.4999C10.0859 6.75002 9.74986 7.08594 9.74986 7.49997C9.74986 7.91401 10.0859 8.24992 10.4999 8.24992H13.4999V10.4999C13.4999 10.803 13.6829 11.0767 13.9627 11.193C14.0997 11.2498 14.2505 11.2646 14.396 11.2356C14.5415 11.2066 14.6752 11.1352 14.78 11.0303L17.7801 8.0302C18.0733 7.737 18.0733 7.26295 17.7801 6.96975Z" fill="white"/>
</svg>
