<svg width="18" height="18" viewBox="0 0 18 18" fill="none" xmlns="http://www.w3.org/2000/svg">
<path d="M15.3 2.7H14.4V0.9C14.4 0.661305 14.3052 0.432387 14.1364 0.263604C13.9676 0.0948211 13.7387 0 13.5 0C13.2613 0 13.0324 0.0948211 12.8636 0.263604C12.6948 0.432387 12.6 0.661305 12.6 0.9V2.7H5.4V0.9C5.4 0.661305 5.30518 0.432387 5.1364 0.263604C4.96761 0.0948211 4.73869 0 4.5 0C4.2613 0 4.03239 0.0948211 3.8636 0.263604C3.69482 0.432387 3.6 0.661305 3.6 0.9V2.7H2.7C1.98392 2.7 1.29716 2.98446 0.790812 3.49081C0.284464 3.99716 0 4.68392 0 5.4V6.3H18V5.4C18 4.68392 17.7155 3.99716 17.2092 3.49081C16.7028 2.98446 16.0161 2.7 15.3 2.7ZM0 15.3C0 16.0161 0.284464 16.7028 0.790812 17.2092C1.29716 17.7155 1.98392 18 2.7 18H15.3C16.0161 18 16.7028 17.7155 17.2092 17.2092C17.7155 16.7028 18 16.0161 18 15.3V8.1H0V15.3Z" fill="#F89800"/>
</svg>
