<svg width="28" height="35" viewBox="0 0 28 35" fill="none" xmlns="http://www.w3.org/2000/svg">
<path d="M11.0781 10.5752C10.4164 11.5568 9.76135 12.3061 9.05444 12.8898V15.8327C9.05444 18.632 11.2729 20.9091 13.9995 20.9091C16.7274 20.9091 18.9465 18.632 18.9465 15.8327V13.0963C15.4731 13.0587 13.2746 12.6068 11.0781 10.5752Z" fill="#FFCDBE"/>
<path d="M15.6237 17.8514C15.3929 17.6641 15.0584 17.7051 14.8762 17.9416C14.6621 18.2205 14.3422 18.3805 13.999 18.3805C13.6559 18.3805 13.3374 18.2212 13.1245 17.943C13.0375 17.8289 12.9099 17.755 12.7699 17.7376C12.6298 17.7202 12.4888 17.7606 12.3777 17.85C12.2668 17.9395 12.1949 18.0707 12.1779 18.2146C12.161 18.3586 12.2003 18.5036 12.2873 18.6177C12.7029 19.1618 13.3267 19.4742 13.999 19.4742C14.67 19.4742 15.2945 19.1625 15.7114 18.6191C15.8937 18.3825 15.8544 18.0387 15.6237 17.8514Z" fill="black"/>
<path d="M27.988 25.5466L27.154 17.8794C26.5722 12.5289 23.2517 6.34648 17.9942 4.60195L18.1172 2.6585C18.1265 2.51016 18.0773 2.36455 17.9795 2.25518C17.9315 2.20077 17.8733 2.15692 17.8084 2.12626C17.7435 2.09559 17.6732 2.07876 17.6018 2.07676C16.3236 2.03916 15.1439 1.35625 14.447 0.250879C14.3479 0.0936523 14.1803 0 14.0001 0C13.8199 0 13.6516 0.0936523 13.5539 0.249512C12.8563 1.35488 11.6772 2.03779 10.399 2.07539C10.3276 2.07754 10.2572 2.09444 10.1922 2.12509C10.1272 2.15574 10.0689 2.19951 10.0207 2.25381C9.97255 2.30824 9.93557 2.37205 9.91193 2.44145C9.88828 2.51085 9.87844 2.58443 9.88299 2.65781L10.0074 4.60127C4.75043 6.34648 1.43002 12.5289 0.848131 17.8787L0.0115451 25.5473C-0.107492 26.6595 0.705818 27.6691 1.90417 27.8947C2.04183 27.9207 2.18348 27.946 2.32778 27.972C1.88289 28.7731 1.62221 29.7384 1.62221 30.9183V34.4531C1.62221 34.7553 1.86028 35 2.15422 35C2.44815 35 2.68623 34.7553 2.68623 34.4531V30.9189C2.68623 29.1177 3.38848 27.8113 4.89739 26.8071C6.27463 25.8904 8.08413 25.3791 9.83378 24.8842C9.98474 24.8418 10.135 24.7987 10.284 24.7563C11.2469 24.4829 11.894 23.6093 11.894 22.5818V21.6111C12.5497 21.8641 13.2599 22.0028 14.0008 22.0028C14.7416 22.0028 15.4511 21.8641 16.1075 21.6111V22.5811C16.1075 23.6086 16.7552 24.4822 17.7182 24.755C17.8678 24.7974 18.0188 24.8404 18.171 24.8835C19.92 25.3784 21.7289 25.8897 23.1054 26.8064C24.6137 27.8106 25.3159 29.117 25.3159 30.9176V34.4531C25.3159 34.7553 25.554 35 25.848 35C26.1419 35 26.38 34.7553 26.38 34.4531V30.9189C26.38 29.7397 26.1193 28.7738 25.6744 27.9727C25.8194 27.9467 25.9597 27.9207 26.0967 27.8947C27.2964 27.6691 28.1097 26.6595 27.988 25.5466ZM7.59535 13.6049C7.59535 13.3608 7.76559 13.1564 7.99037 13.11V16.1854C7.76559 16.139 7.59535 15.9346 7.59535 15.6905V13.6049ZM8.42529 12.006H8.08879C7.98837 12.006 7.89062 12.0162 7.79618 12.0347V11.1713C7.79618 7.6583 10.5793 4.80019 14.0008 4.80019C17.4229 4.80019 20.2066 7.6583 20.2066 11.1713V12.0388C20.1056 12.0176 20.0005 12.006 19.8934 12.006H19.4798C15.6593 12.006 13.5805 11.6218 11.362 9.34473C11.3059 9.28693 11.2378 9.24285 11.1629 9.21575C11.0879 9.18865 11.008 9.17923 10.9291 9.18818C10.7688 9.20596 10.6251 9.29756 10.5387 9.43633C9.82846 10.5725 9.15148 11.3962 8.42529 12.006ZM20.0111 15.8334V13.1154C20.2259 13.1701 20.3855 13.3684 20.3855 13.6056V15.6905C20.3855 15.927 20.2259 16.126 20.0111 16.1807V15.8334ZM14.0001 1.44854C14.7808 2.35635 15.8521 2.95107 17.0212 3.12061L16.9434 4.34629C16.043 3.93545 15.0468 3.70644 13.9994 3.70644C12.9527 3.70644 11.9572 3.93545 11.0567 4.34629L10.9783 3.12061C12.147 2.95067 13.2185 2.35779 14.0001 1.44854ZM10.8293 22.5825C10.8293 23.1198 10.5041 23.5594 10 23.7029C9.85174 23.7453 9.70211 23.7877 9.55182 23.8301C7.2655 24.4761 4.61742 25.2253 3.03336 26.9876C2.70019 26.9302 2.39096 26.8748 2.09569 26.8194C1.45329 26.6984 1.01239 26.2028 1.06958 25.6683L1.9055 18.0004C2.32579 14.1326 4.25366 9.80615 7.34198 7.30693C6.87381 8.02266 6.44022 8.85117 6.0472 9.78496C5.04303 12.1707 4.38068 15.0527 4.18317 17.9013L3.83803 22.8867C3.83285 22.9617 3.84275 23.0369 3.86711 23.1078C3.89147 23.1786 3.92978 23.2436 3.97963 23.2985C4.02948 23.3535 4.08982 23.3973 4.15687 23.4273C4.22393 23.4572 4.29627 23.4726 4.36937 23.4726C4.5038 23.4724 4.63318 23.4199 4.7315 23.3257C4.82983 23.2315 4.88981 23.1025 4.89939 22.9646L5.24453 17.9792C5.41145 15.5743 5.94878 13.0594 6.73549 10.9505C6.73349 11.0236 6.73216 11.0975 6.73216 11.1713V12.8222C6.60084 13.0609 6.53188 13.3306 6.53199 13.6049V15.6898C6.53199 16.5375 7.17772 17.2334 7.99103 17.2853V19.3539C7.99103 20.5762 8.24773 22.2763 8.97193 23.0426C9.0214 23.0952 9.08071 23.1371 9.14631 23.1656C9.2119 23.1942 9.28242 23.2088 9.35364 23.2087C9.48731 23.2087 9.62098 23.1574 9.72406 23.0542C9.93486 22.8436 9.94018 22.4978 9.73536 22.2811C9.35364 21.877 9.05505 20.5919 9.05505 19.3546V19.3348C9.52501 20.0325 10.1291 20.6239 10.83 21.0725V22.5825H10.8293ZM9.05439 15.8334V12.8905C9.76063 12.3067 10.4157 11.5575 11.078 10.5759C13.2746 12.6068 15.4731 13.0587 18.9471 13.0977V15.8341C18.9471 18.6334 16.728 20.9104 14.0001 20.9104C11.2729 20.9098 9.05439 18.6327 9.05439 15.8334ZM24.9688 26.9876C23.3854 25.226 20.738 24.4768 18.4523 23.8308C18.3014 23.7877 18.1511 23.7453 18.0008 23.7029C17.4961 23.5601 17.1702 23.1205 17.1702 22.5832V21.0738C17.8715 20.6248 18.476 20.033 18.9465 19.3348V19.3553C18.9465 20.5926 18.6479 21.8784 18.2661 22.2817C18.0613 22.4984 18.0666 22.8443 18.2774 23.0549C18.3765 23.1542 18.5095 23.2097 18.6479 23.2094C18.7868 23.2094 18.9252 23.154 19.0296 23.0433C19.7538 22.277 20.0105 20.5769 20.0105 19.3546V17.284C20.8138 17.2218 21.4489 16.5307 21.4489 15.6898V13.6049C21.4489 13.3362 21.3837 13.0833 21.2693 12.8611V11.1713C21.2693 11.0975 21.268 11.0236 21.266 10.9505C22.0527 13.0594 22.5894 15.5743 22.757 17.9785L23.1021 22.964C23.1117 23.1018 23.1717 23.2308 23.27 23.325C23.3683 23.4192 23.4977 23.4717 23.6321 23.4719C23.6448 23.4719 23.6574 23.4712 23.6707 23.4705C23.7404 23.4655 23.8085 23.4464 23.871 23.4143C23.9335 23.3821 23.9893 23.3377 24.0351 23.2834C24.0808 23.2291 24.1157 23.166 24.1378 23.0979C24.1598 23.0297 24.1685 22.9577 24.1635 22.886L23.8183 17.8999C23.6208 15.0514 22.9585 12.1693 21.9543 9.78359C21.5613 8.8498 21.1277 8.02129 20.6595 7.30557C23.7478 9.80478 25.6757 14.1312 26.096 17.9997L26.9306 25.6676C26.9891 26.2021 26.5482 26.6971 25.9045 26.8181C25.6139 26.8734 25.306 26.9288 24.9688 26.9876Z" fill="black"/>
<path d="M17.6193 28.6008C16.3359 28.6528 15.5066 29.3384 14.9008 29.8395C14.5443 30.1341 14.2364 30.3884 14.0004 30.3891C13.7629 30.3884 13.4557 30.1341 13.0993 29.8395C12.4934 29.3384 11.6635 28.6528 10.3814 28.6008C9.02007 28.5461 7.87226 28.9474 7.0636 29.7609C6.23034 30.599 5.78412 31.8479 5.80673 33.2787V34.4531C5.80673 34.7552 6.0448 34.9999 6.33874 34.9999C6.63267 34.9999 6.87075 34.7552 6.87075 34.4531V33.2657C6.85213 32.1364 7.18463 31.1698 7.80775 30.5436C8.41092 29.9373 9.26346 29.6515 10.3401 29.6946C11.2711 29.7322 11.8617 30.2203 12.4329 30.6926C12.9244 31.0987 13.3879 31.4822 14.001 31.4835C14.6128 31.4822 15.077 31.0987 15.5684 30.6926C16.1397 30.2203 16.7302 29.7322 17.6619 29.6946C18.7379 29.6515 19.5898 29.9366 20.1923 30.5422C20.8154 31.1684 21.1492 32.1357 21.1313 33.2664V34.4531C21.1313 34.7552 21.3694 34.9999 21.6633 34.9999C21.9572 34.9999 22.1953 34.7552 22.1953 34.4531V33.2793C22.2172 31.8472 21.7697 30.5976 20.9364 29.7602C20.1271 28.9474 18.98 28.5461 17.6193 28.6008ZM16.7209 13.3567C16.427 13.3567 16.1889 13.6014 16.1889 13.9036V14.6651C16.1889 14.9672 16.427 15.212 16.7209 15.212C17.0149 15.212 17.2529 14.9672 17.2529 14.6651V13.9036C17.2529 13.6014 17.0149 13.3567 16.7209 13.3567ZM11.2778 13.3567C10.9839 13.3567 10.7458 13.6014 10.7458 13.9036V14.6651C10.7458 14.9672 10.9839 15.212 11.2778 15.212C11.5717 15.212 11.8098 14.9672 11.8098 14.6651V13.9036C11.8098 13.6014 11.5717 13.3567 11.2778 13.3567Z" fill="black"/>
<path d="M21.1309 34.453V33.2663C21.1489 32.1363 20.815 31.1684 20.1919 30.5422C19.5888 29.9365 18.7375 29.6508 17.6616 29.6945C16.7299 29.7321 16.1393 30.2202 15.5681 30.6926C15.0766 31.0986 14.6125 31.4828 14.0007 31.4835C13.3882 31.4821 12.924 31.0986 12.4326 30.6926C11.8613 30.2202 11.2708 29.7321 10.3398 29.6945C9.26244 29.6515 8.41056 29.9372 7.80739 30.5436C7.18428 31.1704 6.85177 32.137 6.87039 33.2656V34.453C6.87039 34.7552 6.63231 34.9999 6.33838 34.9999H21.6623C21.369 34.9999 21.1309 34.7552 21.1309 34.453Z" fill="#F89A00"/>
<path d="M20.0108 15.8333V16.1799C20.2256 16.1252 20.3852 15.927 20.3852 15.6897V13.6048C20.3852 13.3683 20.2256 13.1693 20.0108 13.1146V15.8333ZM7.98999 16.1854V13.1099C7.76521 13.1563 7.59497 13.3607 7.59497 13.6048V15.6897C7.59497 15.9345 7.76521 16.1389 7.98999 16.1854Z" fill="#F9C0B4"/>
<path d="M14 3.70713C15.0474 3.70713 16.0436 3.93613 16.944 4.34697L17.0218 3.12129C15.8532 2.95134 14.782 2.35845 14.0006 1.44922C13.2199 2.35703 12.1486 2.95176 10.9795 3.12129L11.058 4.34697C11.9571 3.93545 12.9532 3.70713 14 3.70713Z" fill="#FFCB63"/>
<path d="M8.42493 12.0061C9.15179 11.3963 9.82878 10.5726 10.5377 9.43643C10.5806 9.36774 10.6379 9.3098 10.7055 9.26686C10.773 9.22392 10.8491 9.19708 10.928 9.18829C11.007 9.17951 11.0868 9.18901 11.1618 9.21609C11.2367 9.24318 11.3047 9.28717 11.361 9.34482C13.5788 11.6219 15.6576 12.0061 19.4788 12.0061H19.8924C19.9995 12.0061 20.1046 12.017 20.2056 12.0389V11.1714C20.2056 7.6584 17.4219 4.80029 13.9997 4.80029C10.5789 4.80029 7.79517 7.6584 7.79517 11.1714V12.0348C7.89026 12.0163 7.98802 12.0061 8.08777 12.0061H8.42493Z" fill="#BE694E"/>
<path d="M8.76829 18.3562V18.376C8.76829 19.6133 9.06688 20.8991 9.4486 21.3024C9.65342 21.5191 9.6481 21.865 9.43729 22.0756C9.33824 22.1749 9.20526 22.2304 9.06688 22.2301C8.92789 22.2301 8.78957 22.1747 8.68516 22.064C7.96096 21.2977 7.70427 19.5976 7.70427 18.3753V16.3067C6.89096 16.2548 6.24523 15.5589 6.24523 14.7112V12.6263C6.24523 12.3419 6.31838 12.0753 6.4454 11.8436V10.1927C6.4454 10.1188 6.44673 10.045 6.44872 9.97188C5.66201 12.0808 5.12535 14.5957 4.95776 17.0006L4.61262 21.986C4.60305 22.1239 4.54306 22.2529 4.44474 22.3471C4.34641 22.4413 4.21703 22.4938 4.08261 22.4939C4.06997 22.4939 4.05734 22.4933 4.04404 22.4926C3.97432 22.4876 3.90624 22.4684 3.84372 22.4363C3.7812 22.4042 3.72545 22.3597 3.67968 22.3054C3.6339 22.2511 3.599 22.1881 3.57696 22.1199C3.55493 22.0517 3.54619 21.9798 3.55126 21.9081L3.8964 16.9227C4.09458 14.0741 4.75627 11.1921 5.76043 8.80635C6.15346 7.87256 6.58705 7.04404 7.05521 6.32832C3.9669 8.82754 2.03902 13.154 1.61874 17.0218L0.782815 24.6896C0.725624 25.2242 1.16653 25.7191 1.80893 25.8408C2.10353 25.8955 2.41343 25.9516 2.7466 26.009C4.33066 24.2467 6.97874 23.4975 9.26505 22.8515C9.41535 22.8091 9.56497 22.7667 9.71327 22.7243C10.2174 22.5814 10.5425 22.1419 10.5425 21.6039V20.0938C9.84212 19.6449 9.23835 19.0536 8.76829 18.3562ZM26.6445 24.6896L25.8099 17.0218C25.3896 13.154 23.4617 8.82754 20.3734 6.32764C20.8416 7.04336 21.2752 7.87188 21.6682 8.80566C22.6724 11.1914 23.3341 14.0734 23.5322 16.922L23.8774 21.9081C23.8826 21.9831 23.8727 22.0583 23.8483 22.1292C23.8239 22.2 23.7856 22.265 23.7358 22.3199C23.6859 22.3749 23.6256 22.4187 23.5585 22.4487C23.4915 22.4786 23.4191 22.494 23.346 22.4939C23.2116 22.4938 23.0822 22.4413 22.9839 22.3471C22.8856 22.2529 22.8256 22.1239 22.816 21.986L22.4715 16.9999C22.3046 14.595 21.7673 12.0801 20.9806 9.97188C20.9826 10.045 20.9839 10.1188 20.9839 10.1927V11.8825C21.0983 12.1047 21.1635 12.3576 21.1635 12.6263V14.7112C21.1635 15.5521 20.5284 16.2425 19.725 16.3054V18.376C19.725 19.5982 19.4683 21.2983 18.7441 22.0646C18.6947 22.1173 18.6354 22.1592 18.5698 22.1877C18.5042 22.2163 18.4337 22.2309 18.3624 22.2308C18.2288 22.2308 18.0951 22.1795 17.992 22.0763C17.7812 21.8657 17.7759 21.5198 17.9807 21.3031C18.3624 20.8991 18.661 19.614 18.661 18.3767V18.3562C18.1904 19.0542 17.586 19.646 16.8848 20.0952V21.6046C16.8848 22.1419 17.2106 22.5814 17.7154 22.7243C17.865 22.7667 18.0153 22.8098 18.1669 22.8521C20.4526 23.4988 23.0993 24.2474 24.6834 26.009C25.0212 25.9509 25.3291 25.8955 25.6197 25.8408C26.2621 25.7198 26.703 25.2249 26.6445 24.6896Z" fill="#F89A00"/>
<path d="M25.3153 34.4532V30.919C25.3153 29.1184 24.613 27.8121 23.1048 26.8079C21.7275 25.8912 19.9194 25.3798 18.1704 24.8849C18.0181 24.8418 17.8672 24.7995 17.7175 24.7564C16.7546 24.4836 16.1069 23.61 16.1069 22.5826V21.6125C15.4512 21.8655 14.7409 22.0042 14.0001 22.0042C13.2593 22.0042 12.549 21.8655 11.8933 21.6125V22.5833C11.8933 23.6107 11.2463 24.4843 10.2833 24.7578C10.135 24.8001 9.98475 24.8425 9.83313 24.8856C8.08348 25.3805 6.27398 25.8918 4.89674 26.8085C3.38849 27.8127 2.68557 29.1191 2.68557 30.9204V34.4532C2.68557 34.7553 2.4475 35 2.15356 35H6.33782C6.04389 35 5.80581 34.7553 5.80581 34.4532V33.2794C5.7832 31.8487 6.22943 30.5998 7.06269 29.7617C7.87134 28.9482 9.01916 28.5469 10.3804 28.6016C11.6632 28.6536 12.4925 29.3392 13.0983 29.8403C13.4548 30.1349 13.762 30.3892 13.9994 30.3899C14.2355 30.3892 14.5434 30.1349 14.8999 29.8403C15.5057 29.3392 16.3356 28.6536 17.6184 28.6016C18.9791 28.5469 20.1255 28.9475 20.9342 29.7603C21.7681 30.5977 22.215 31.848 22.1931 33.2794V34.4532C22.1931 34.7553 21.955 35 21.6611 35H25.8453C25.5534 35 25.3153 34.7553 25.3153 34.4532Z" fill="#FFCDBE"/>
<path d="M9.99994 23.7029C10.504 23.56 10.8292 23.1205 10.8292 22.5825V21.0724C10.1287 20.6233 9.52479 20.032 9.0543 19.3347V19.3545C9.0543 20.5918 9.35289 21.8777 9.7346 22.281C9.93943 22.4977 9.93411 22.8436 9.7233 23.0542C9.62424 23.1535 9.49126 23.2089 9.35288 23.2086C9.2139 23.2086 9.07558 23.1533 8.97117 23.0425C8.24697 22.2762 7.99027 20.5761 7.99027 19.3539V17.2853C7.17696 17.2333 6.53124 16.5375 6.53124 15.6898V13.6048C6.53124 13.3205 6.60439 13.0539 6.73141 12.8221V11.1712C6.73141 11.0974 6.73274 11.0236 6.73473 10.9504C5.94802 13.0593 5.41136 15.5743 5.24377 17.9792L4.89863 22.9646C4.88905 23.1024 4.82907 23.2314 4.73075 23.3256C4.63242 23.4199 4.50304 23.4723 4.36861 23.4725C4.30211 24.4254 5.05557 24.919 5.64943 25.1589C6.89899 24.5799 8.28088 24.1889 9.55172 23.83C9.70202 23.787 9.85165 23.7446 9.99994 23.7029ZM23.632 23.4725C23.3561 23.4718 23.1226 23.2524 23.1027 22.9646L22.7575 17.9785C22.5906 15.5736 22.0533 13.0586 21.2666 10.9504C21.2686 11.0236 21.2699 11.0974 21.2699 11.1712V12.8611C21.3843 13.0833 21.4495 13.3362 21.4495 13.6048V15.6898C21.4495 16.5306 20.8144 17.221 20.011 17.2839V19.3545C20.011 20.5768 19.7544 22.2769 19.0302 23.0432C18.9807 23.0959 18.9214 23.1377 18.8558 23.1663C18.7902 23.1948 18.7197 23.2095 18.6484 23.2093C18.5148 23.2093 18.3811 23.1581 18.278 23.0548C18.0672 22.8443 18.0619 22.4984 18.2667 22.2817C18.6484 21.8777 18.947 20.5925 18.947 19.3552V19.3347C18.4764 20.0328 17.872 20.6246 17.1708 21.0738V22.5832C17.1708 23.1205 17.4966 23.56 18.0014 23.7029C18.151 23.7453 18.3013 23.7883 18.4529 23.8307C19.7224 24.1896 21.1037 24.5806 22.3519 25.1589C22.9457 24.919 23.6985 24.4254 23.632 23.4725Z" fill="#F89A00"/>
</svg>
