<svg width="22" height="27" viewBox="0 0 22 27" fill="none" xmlns="http://www.w3.org/2000/svg">
<path d="M21.3168 19.0271C20.496 18.3191 19.8365 17.4363 19.3844 16.4403C18.9323 15.4444 18.6985 14.3595 18.6994 13.2615V10.125C18.6994 6.16612 15.8234 2.889 12.0981 2.34V1.125C12.0981 0.826631 11.9821 0.540483 11.7758 0.329505C11.5695 0.118526 11.2896 0 10.9978 0C10.706 0 10.4262 0.118526 10.2199 0.329505C10.0135 0.540483 9.89763 0.826631 9.89763 1.125V2.34C6.1712 2.889 3.29634 6.16612 3.29634 10.125V13.2615C3.29676 14.3617 3.06181 15.4487 2.60795 16.4463C2.15409 17.4438 1.49231 18.3278 0.669022 19.0361C0.371479 19.2984 0.159406 19.6474 0.0612023 20.0363C-0.037001 20.4252 -0.016646 20.8355 0.119541 21.2123C0.255729 21.5891 0.501247 21.9143 0.823216 22.1445C1.14519 22.3746 1.52823 22.4986 1.92107 22.5H20.0746C21.1363 22.5 22 21.6169 22 20.5312C22 19.9552 21.7547 19.4107 21.3168 19.0271ZM10.9978 27C11.9485 26.9987 12.8695 26.6623 13.6059 26.0475C14.3422 25.4327 14.8487 24.5771 15.04 23.625H6.95565C7.14699 24.5771 7.6535 25.4327 8.38982 26.0475C9.12614 26.6623 10.0472 26.9987 10.9978 27Z" fill="black"/>
</svg>
