<svg width="22" height="22" viewBox="0 0 22 22" fill="none" xmlns="http://www.w3.org/2000/svg">
<path d="M12.9114 1.59023L14.8503 5.49399C15.1115 6.03387 15.8128 6.54607 16.4041 6.65681L19.9106 7.23823C22.152 7.61199 22.6745 9.24548 21.0657 10.879L18.3293 13.6337C17.8755 14.0906 17.6142 14.9904 17.7655 15.641L18.5493 19.0464C19.1681 21.732 17.738 22.784 15.3866 21.3721L12.1001 19.4063C11.5088 19.0464 10.5187 19.0464 9.92743 19.4063L6.64095 21.3721C4.28954 22.7702 2.85944 21.732 3.47824 19.0464L4.26204 15.641C4.3858 14.9765 4.12453 14.0767 3.67075 13.6199L0.934313 10.8651C-0.674547 9.24548 -0.152011 7.61199 2.08939 7.22438L5.59588 6.64297C6.18717 6.54607 6.88847 6.02003 7.14974 5.48015L9.08862 1.57639C10.1474 -0.527765 11.8526 -0.527765 12.9114 1.59023Z" fill="#FF9F43"/>
</svg>
