<svg width="26" height="26" viewBox="0 0 26 26" fill="none" xmlns="http://www.w3.org/2000/svg">
<path d="M24.6938 23.4989H24.1427V10.5043H24.1423C23.4653 10.5043 22.8244 10.2927 22.2911 9.93642C21.932 10.1783 21.5186 10.357 21.0613 10.4443C20.8524 10.4841 20.64 10.5042 20.427 10.5043C20.287 10.5043 20.1501 10.4894 20.0141 10.4723V20.1386C20.0141 20.6901 19.547 21.1374 18.9705 21.1374H15.2216V18.3998L16.5433 20.5123C16.6993 20.7621 16.9758 20.9004 17.2594 20.9004C17.4047 20.9004 17.5527 20.8638 17.687 20.7868C18.0817 20.5599 18.2101 20.0699 17.9732 19.6916L15.3162 15.4446C15.1518 15.1811 14.8531 15.0509 14.554 15.0671C14.534 15.0653 11.4755 15.0649 11.4569 15.0662C11.1538 15.0462 10.8507 15.1777 10.6835 15.4446L8.02656 19.6916C7.78965 20.0699 7.91805 20.5599 8.31276 20.7868C8.44191 20.8611 8.58973 20.9004 8.74041 20.9004C9.02398 20.9004 9.30044 20.7621 9.45645 20.5123L10.7867 18.3862V21.1374H7.0297C6.4532 21.1374 5.98611 20.6902 5.98611 20.1386V10.4723C5.85016 10.4894 5.71319 10.5043 5.5732 10.5043C5.3634 10.5043 5.15003 10.4843 4.93676 10.4439C4.47981 10.3566 4.06734 10.1783 3.70865 9.93642C3.17535 10.2927 2.53488 10.5043 1.85789 10.5043H1.85744V23.4989H1.30638C0.585022 23.4989 0.000517845 24.0586 0.000517845 24.7495C0.000517845 25.4403 0.585022 26 1.30638 26H24.694C25.4154 26 25.9998 25.4403 25.9998 24.7495C25.9997 24.0586 25.4152 23.4989 24.6938 23.4989Z" fill="white"/>
<path d="M12.9996 10.5804C12.0408 10.5804 11.2626 11.4322 11.2626 12.4835C11.2626 13.5339 12.0408 14.3865 12.9996 14.3865C13.9592 14.3865 14.737 13.5339 14.737 12.4835C14.737 11.4322 13.9592 10.5804 12.9996 10.5804ZM1.32616 9.09589C1.499 9.14509 1.67836 9.17015 1.85868 9.1703C2.65779 9.1703 3.39657 8.67192 3.63695 7.90071L3.7347 7.58784C3.82226 8.33744 4.39562 8.98093 5.20902 9.13591C5.33119 9.1593 5.45343 9.17035 5.57348 9.17035C6.44149 9.17035 7.21708 8.58475 7.39309 7.73896L7.43841 7.52148C7.50244 8.36802 8.18957 9.07465 9.10157 9.16145C9.16431 9.16735 9.22649 9.16992 9.28828 9.16992C10.2306 9.16992 11.0382 8.48556 11.1337 7.56788L11.1475 7.43591C11.1728 8.39742 11.9903 9.16992 13.0001 9.16992C14.0098 9.16992 14.8272 8.39742 14.8526 7.43591L14.8663 7.56788C14.9619 8.48556 15.7695 9.16992 16.7118 9.16992C16.7736 9.16992 16.8357 9.1674 16.8984 9.16145C17.8104 9.07465 18.4981 8.36802 18.5616 7.52148L18.6069 7.73896C18.783 8.58512 19.5585 9.17035 20.4265 9.17035C20.5489 9.17039 20.671 9.15885 20.791 9.13591C21.6044 8.98093 22.1782 8.33744 22.2653 7.58784L22.3631 7.90071C22.6035 8.67198 23.3422 9.1703 24.1413 9.1703C24.3177 9.1703 24.4964 9.14605 24.6738 9.09589C25.6569 8.81446 26.2152 7.82362 25.9219 6.88298L24.2457 1.51057C23.9662 0.614197 23.1053 0 22.1284 0H3.87161C2.89469 0 2.03379 0.614197 1.75426 1.51057L0.0781045 6.88298C-0.215212 7.82362 0.343075 8.81446 1.32616 9.09589Z" fill="white"/>
</svg>
