<svg width="18" height="18" viewBox="0 0 18 18" fill="none" xmlns="http://www.w3.org/2000/svg">
<path fill-rule="evenodd" clip-rule="evenodd" d="M4.5 0C3.78392 0 3.09716 0.258603 2.59081 0.71892C2.08446 1.17924 1.8 1.80356 1.8 2.45455V4.09091H0.9C0.661305 4.09091 0.432387 4.17711 0.263604 4.33055C0.0948211 4.48399 0 4.6921 0 4.90909C0 5.12609 0.0948211 5.33419 0.263604 5.48763C0.432387 5.64107 0.661305 5.72727 0.9 5.72727H1.8V8.18182H0.9C0.661305 8.18182 0.432387 8.26802 0.263604 8.42146C0.0948211 8.5749 0 8.783 0 9C0 9.217 0.0948211 9.4251 0.263604 9.57854C0.432387 9.73198 0.661305 9.81818 0.9 9.81818H1.8V12.2727H0.9C0.661305 12.2727 0.432387 12.3589 0.263604 12.5124C0.0948211 12.6658 0 12.8739 0 13.0909C0 13.3079 0.0948211 13.516 0.263604 13.6695C0.432387 13.8229 0.661305 13.9091 0.9 13.9091H1.8V15.5455C1.8 16.1964 2.08446 16.8208 2.59081 17.2811C3.09716 17.7414 3.78392 18 4.5 18H15.3C16.0161 18 16.7028 17.7414 17.2092 17.2811C17.7155 16.8208 18 16.1964 18 15.5455V2.45455C18 1.80356 17.7155 1.17924 17.2092 0.71892C16.7028 0.258603 16.0161 0 15.3 0H4.5ZM11.7 6.54545C11.7 6.97944 11.5104 7.39566 11.1728 7.70254C10.8352 8.00942 10.3774 8.18182 9.9 8.18182C9.42261 8.18182 8.96477 8.00942 8.62721 7.70254C8.28964 7.39566 8.1 6.97944 8.1 6.54545C8.1 6.11146 8.28964 5.69525 8.62721 5.38837C8.96477 5.08149 9.42261 4.90909 9.9 4.90909C10.3774 4.90909 10.8352 5.08149 11.1728 5.38837C11.5104 5.69525 11.7 6.11146 11.7 6.54545ZM6.3 11.4545C6.3 11.8885 6.48964 12.3048 6.82721 12.6116C7.16477 12.9185 7.62261 13.0909 8.1 13.0909H11.7C12.1774 13.0909 12.6352 12.9185 12.9728 12.6116C13.3104 12.3048 13.5 11.8885 13.5 11.4545C13.5 11.0206 13.3104 10.6043 12.9728 10.2975C12.6352 9.99058 12.1774 9.81818 11.7 9.81818H8.1C7.62261 9.81818 7.16477 9.99058 6.82721 10.2975C6.48964 10.6043 6.3 11.0206 6.3 11.4545Z" fill="#F89A00"/>
</svg>
