<svg width="17" height="16" viewBox="0 0 17 16" fill="none" xmlns="http://www.w3.org/2000/svg">
<path d="M15.1464 0H13.5576V1.58878C13.5576 1.90654 13.2928 2.11838 13.028 2.11838C12.7632 2.11838 12.4984 1.90654 12.4984 1.58878V0H4.02492V1.58878C4.02492 1.90654 3.76012 2.11838 3.49532 2.11838C3.23053 2.11838 2.96573 1.90654 2.96573 1.58878V0H1.37695C0.582554 0 0 0.688473 0 1.58878V3.49532H16.947V1.58878C16.947 0.688473 15.9937 0 15.1464 0ZM0 4.60747V14.299C0 15.2523 0.582554 15.8878 1.4299 15.8878H15.1994C16.0467 15.8878 17 15.1994 17 14.299V4.60747H0ZM4.71339 13.5047H3.44236C3.23053 13.5047 3.01869 13.3458 3.01869 13.081V11.757C3.01869 11.5452 3.17757 11.3333 3.44236 11.3333H4.76635C4.97819 11.3333 5.19002 11.4922 5.19002 11.757V13.081C5.13707 13.3458 4.97819 13.5047 4.71339 13.5047ZM4.71339 8.73831H3.44236C3.23053 8.73831 3.01869 8.57943 3.01869 8.31463V6.99064C3.01869 6.77881 3.17757 6.56697 3.44236 6.56697H4.76635C4.97819 6.56697 5.19002 6.72585 5.19002 6.99064V8.31463C5.13707 8.57943 4.97819 8.73831 4.71339 8.73831ZM8.95014 13.5047H7.62616C7.41432 13.5047 7.20248 13.3458 7.20248 13.081V11.757C7.20248 11.5452 7.36136 11.3333 7.62616 11.3333H8.95014C9.16198 11.3333 9.37382 11.4922 9.37382 11.757V13.081C9.37382 13.3458 9.21494 13.5047 8.95014 13.5047ZM8.95014 8.73831H7.62616C7.41432 8.73831 7.20248 8.57943 7.20248 8.31463V6.99064C7.20248 6.77881 7.36136 6.56697 7.62616 6.56697H8.95014C9.16198 6.56697 9.37382 6.72585 9.37382 6.99064V8.31463C9.37382 8.57943 9.21494 8.73831 8.95014 8.73831ZM13.1869 13.5047H11.8629C11.6511 13.5047 11.4392 13.3458 11.4392 13.081V11.757C11.4392 11.5452 11.5981 11.3333 11.8629 11.3333H13.1869C13.3987 11.3333 13.6106 11.4922 13.6106 11.757V13.081C13.6106 13.3458 13.4517 13.5047 13.1869 13.5047ZM13.1869 8.73831H11.8629C11.6511 8.73831 11.4392 8.57943 11.4392 8.31463V6.99064C11.4392 6.77881 11.5981 6.56697 11.8629 6.56697H13.1869C13.3987 6.56697 13.6106 6.72585 13.6106 6.99064V8.31463C13.6106 8.57943 13.4517 8.73831 13.1869 8.73831Z" fill="black"/>
</svg>
