<svg width="23" height="27" viewBox="0 0 23 27" fill="none" xmlns="http://www.w3.org/2000/svg">
<path d="M5.60905 1.48781C9.07911 -0.528446 13.3444 -0.493205 16.7819 1.58013C20.1856 3.69569 22.2543 7.47134 22.2352 11.5329C22.1558 15.5678 19.9376 19.3606 17.1648 22.2926C15.5644 23.9925 13.7741 25.4957 11.8305 26.7714C11.6303 26.8871 11.4111 26.9646 11.1835 27C10.9645 26.9907 10.7513 26.926 10.563 26.8117C7.59562 24.8949 4.99235 22.4482 2.87841 19.5892C1.10952 17.2028 0.104561 14.3195 0 11.3311L0.00791929 10.8964C0.152347 6.99561 2.26291 3.43206 5.60905 1.48781ZM12.5586 7.99641C11.1479 7.39678 9.52154 7.72256 8.4388 8.82161C7.35606 9.92067 7.03055 11.5762 7.61426 13.0152C8.19797 14.4543 9.57576 15.3929 11.1043 15.3929C12.1057 15.4001 13.0683 14.999 13.7776 14.279C14.487 13.559 14.8841 12.5798 14.8806 11.5598C14.8859 10.0028 13.9693 8.59603 12.5586 7.99641Z" fill="black"/>
</svg>
