<svg width="32" height="32" viewBox="0 0 32 32" fill="none" xmlns="http://www.w3.org/2000/svg">
<path d="M29 15.5C29 22.4036 23.4036 28 16.5 28C9.59644 28 4 22.4036 4 15.5C4 8.59644 9.59644 3 16.5 3C23.4036 3 29 8.59644 29 15.5Z" fill="white"/>
<path d="M27.3188 4.68131C21.0759 -1.56044 10.9231 -1.56044 4.68018 4.68131C-1.56006 10.9231 -1.56006 21.0787 4.68018 27.3204C7.80164 30.4406 11.9009 32 16.0002 32C20.0995 32 24.1973 30.4405 27.3188 27.3204C33.5604 21.0787 33.5604 10.9231 27.3188 4.68131ZM22.6019 20.7172C23.1234 21.2387 23.1234 22.0818 22.6019 22.6034C22.4782 22.7274 22.3312 22.8258 22.1693 22.8929C22.0075 22.96 21.834 22.9944 21.6588 22.9943C21.4836 22.9944 21.3101 22.96 21.1482 22.8929C20.9864 22.8258 20.8394 22.7274 20.7156 22.6034L16.0001 17.8864L11.2859 22.602C11.0357 22.8521 10.6965 22.9927 10.3428 22.9929C10.1676 22.9931 9.99407 22.9586 9.83222 22.8915C9.67037 22.8245 9.52337 22.7261 9.39964 22.602C8.87808 22.0805 8.87808 21.236 9.39964 20.7158L14.1139 16.0002L9.39833 11.2845C8.87677 10.763 8.87677 9.91856 9.39833 9.39831C9.91857 8.87674 10.763 8.87674 11.2845 9.39831L16 14.1139L20.7156 9.39831C21.2371 8.87674 22.0802 8.87674 22.6018 9.39831C23.1233 9.91856 23.1233 10.763 22.6018 11.2845L17.8862 16.0002L22.6019 20.7172Z" fill="#181818"/>
</svg>
