<svg width="259" height="46" viewBox="0 0 259 46" fill="none" xmlns="http://www.w3.org/2000/svg">
<path fill-rule="evenodd" clip-rule="evenodd" d="M247.5 46H224.5C221.45 46 218.525 44.7884 216.368 42.6317C214.212 40.4751 213 37.55 213 34.5V11.5C213 8.45001 214.212 5.52494 216.368 3.36827C218.525 1.2116 221.45 0 224.5 0H247.5C250.55 0 253.475 1.2116 255.632 3.36827C257.788 5.52494 259 8.45001 259 11.5V34.5C259 37.55 257.788 40.4751 255.632 42.6317C253.475 44.7884 250.55 46 247.5 46Z" fill="#0F9DFF"/>
<path fill-rule="evenodd" clip-rule="evenodd" d="M234.562 12.9375H247.5C249.16 12.9396 250.757 12.3036 251.961 11.1612C253.165 10.0188 253.883 8.45733 253.968 6.79979C254.053 5.14225 253.498 3.51548 252.417 2.25599C251.336 0.996491 249.812 0.20064 248.161 0.0330625C247.941 0.0208437 247.724 0 247.5 0H224.5C221.45 0 218.525 1.2116 216.368 3.36827C214.212 5.52494 213 8.45001 213 11.5V34.5C213 28.7813 215.272 23.2968 219.316 19.253C223.359 15.2093 228.844 12.9375 234.562 12.9375Z" fill="#00B7FF"/>
<path fill-rule="evenodd" clip-rule="evenodd" d="M247.5 23C245.226 23 243.002 23.6745 241.111 24.9381C239.22 26.2017 237.746 27.9978 236.875 30.0991C236.005 32.2005 235.777 34.5128 236.221 36.7435C236.665 38.9743 237.76 41.0234 239.368 42.6317C240.977 44.24 243.026 45.3353 245.256 45.779C247.487 46.2228 249.8 45.995 251.901 45.1246C254.002 44.2542 255.798 42.7802 257.062 40.8891C258.326 38.9979 259 36.7745 259 34.5V11.5C259 14.55 257.788 17.4751 255.632 19.6317C253.475 21.7884 250.55 23 247.5 23Z" fill="#1D83FF"/>
<path d="M230.664 34.684C241.688 34.684 247.803 25.323 247.431 17.1465C248.248 16.5563 248.986 15.8646 249.628 15.088C249.677 15.0279 249.705 14.9537 249.707 14.8765C249.71 14.7993 249.688 14.7232 249.644 14.6596C249.6 14.5961 249.537 14.5484 249.464 14.5238C249.391 14.4992 249.311 14.4989 249.238 14.5231C248.753 14.6788 248.259 14.8039 247.759 14.8975C247.719 14.904 247.679 14.8971 247.644 14.8781C247.609 14.859 247.581 14.8288 247.565 14.7922C247.549 14.7556 247.546 14.7147 247.556 14.676C247.565 14.6373 247.588 14.6029 247.619 14.5784C248.263 14.0688 248.794 13.4307 249.178 12.7046C249.212 12.6385 249.223 12.5634 249.212 12.4902C249.2 12.417 249.166 12.3493 249.114 12.2967C249.061 12.2441 248.994 12.2093 248.921 12.1973C248.848 12.1852 248.772 12.1965 248.706 12.2295C247.792 12.6652 246.826 12.9842 245.833 13.179C245.023 12.3165 243.973 11.7172 242.819 11.4589C241.665 11.2005 240.46 11.2951 239.36 11.7302C238.261 12.1654 237.317 12.9211 236.652 13.8993C235.987 14.8774 235.632 16.0328 235.632 17.2155C235.634 17.5914 235.669 17.9664 235.738 18.336C235.743 18.3629 235.742 18.3906 235.734 18.417C235.727 18.4434 235.714 18.4678 235.696 18.4883C235.678 18.5088 235.655 18.5249 235.63 18.5354C235.605 18.5459 235.577 18.5505 235.55 18.5488C231.283 18.2759 227.282 16.3791 224.369 13.248C224.285 13.1547 224.178 13.0852 224.058 13.0467C223.938 13.0081 223.811 13.0018 223.688 13.0283C223.565 13.0548 223.451 13.1133 223.358 13.1978C223.265 13.2823 223.196 13.3899 223.158 13.5096C222.756 14.6295 222.712 15.8469 223.033 16.9927C223.354 18.1386 224.024 19.156 224.95 19.9036C224.98 19.9275 225.002 19.9608 225.011 19.9982C225.021 20.0355 225.018 20.075 225.002 20.1105C224.987 20.1459 224.961 20.1754 224.927 20.1942C224.893 20.2131 224.854 20.2203 224.816 20.2148C224.479 20.169 224.147 20.0929 223.824 19.9877C223.706 19.9482 223.579 19.9405 223.457 19.9652C223.335 19.9899 223.222 20.0463 223.129 20.1286C223.033 20.2091 222.961 20.3144 222.921 20.4329C222.881 20.5514 222.875 20.6786 222.902 20.8006C224.151 25.6105 227.535 24.9974 227.535 25.3618C227.535 25.6083 226.865 25.6083 225.968 25.6105C225.847 25.6111 225.728 25.643 225.622 25.7029C225.517 25.7628 225.428 25.8488 225.366 25.9527C225.303 26.0566 225.268 26.1749 225.264 26.2962C225.26 26.4175 225.287 26.5378 225.343 26.6455C225.815 27.4572 226.473 28.1457 227.262 28.6546C228.051 29.1635 228.949 29.4785 229.883 29.5737C229.92 29.5763 229.954 29.5901 229.983 29.6132C230.011 29.6363 230.031 29.6675 230.041 29.7026C230.051 29.7377 230.05 29.775 230.038 29.8094C230.026 29.8438 230.004 29.8737 229.974 29.895C228.342 31.0752 226.435 31.8168 224.435 32.0491C224.28 32.0616 224.134 32.1255 224.02 32.2305C223.905 32.3355 223.829 32.4757 223.804 32.6287C223.778 32.7818 223.805 32.939 223.879 33.0754C223.953 33.2118 224.07 33.3196 224.213 33.3816C226.254 34.2448 228.448 34.6877 230.664 34.684Z" fill="white"/>
<g clip-path="url(#clip0_1_2702)">
<path fill-rule="evenodd" clip-rule="evenodd" d="M176.5 46H153.5C150.45 46 147.525 44.7884 145.368 42.6317C143.212 40.4751 142 37.55 142 34.5V11.5C142 8.45001 143.212 5.52494 145.368 3.36827C147.525 1.2116 150.45 0 153.5 0L176.5 0C179.55 0 182.475 1.2116 184.632 3.36827C186.788 5.52494 188 8.45001 188 11.5V34.5C188 37.55 186.788 40.4751 184.632 42.6317C182.475 44.7884 179.55 46 176.5 46Z" fill="#FF3A55"/>
<path fill-rule="evenodd" clip-rule="evenodd" d="M163.562 12.9375H176.5C178.16 12.9396 179.757 12.3036 180.961 11.1612C182.165 10.0188 182.883 8.45733 182.968 6.79979C183.053 5.14226 182.498 3.51548 181.417 2.25599C180.336 0.996491 178.812 0.20064 177.161 0.0330625C176.941 0.0208437 176.724 0 176.5 0H153.5C150.45 0 147.525 1.2116 145.368 3.36827C143.212 5.52494 142 8.45001 142 11.5V34.5C142 28.7813 144.272 23.2968 148.316 19.253C152.359 15.2093 157.844 12.9375 163.562 12.9375Z" fill="#FF796C"/>
<path fill-rule="evenodd" clip-rule="evenodd" d="M176.5 23C174.226 23 172.002 23.6745 170.111 24.9381C168.22 26.2017 166.746 27.9978 165.875 30.0991C165.005 32.2005 164.777 34.5128 165.221 36.7435C165.665 38.9743 166.76 41.0234 168.368 42.6317C169.977 44.24 172.026 45.3353 174.256 45.779C176.487 46.2228 178.8 45.995 180.901 45.1246C183.002 44.2542 184.798 42.7802 186.062 40.8891C187.326 38.9979 188 36.7745 188 34.5V11.5C188 14.55 186.788 17.4751 184.632 19.6317C182.475 21.7884 179.55 23 176.5 23Z" fill="#E00047"/>
<path d="M173.984 15.8125C174.977 15.8125 175.781 15.008 175.781 14.0156C175.781 13.0232 174.977 12.2188 173.984 12.2188C172.992 12.2188 172.188 13.0232 172.188 14.0156C172.188 15.008 172.992 15.8125 173.984 15.8125Z" fill="white"/>
<path fill-rule="evenodd" clip-rule="evenodd" d="M165 17.25C166.137 17.25 167.249 17.5872 168.195 18.2191C169.14 18.8509 169.877 19.7489 170.312 20.7996C170.748 21.8502 170.861 23.0064 170.64 24.1218C170.418 25.2372 169.87 26.2617 169.066 27.0659C168.262 27.87 167.237 28.4177 166.122 28.6395C165.006 28.8614 163.85 28.7475 162.8 28.3123C161.749 27.8771 160.851 27.1401 160.219 26.1945C159.587 25.2489 159.25 24.1372 159.25 23C159.251 21.4752 159.857 20.0131 160.935 18.935C162.013 17.8568 163.475 17.2508 165 17.25ZM165 14.375C166.706 14.375 168.373 14.8808 169.792 15.8286C171.21 16.7763 172.316 18.1233 172.968 19.6994C173.621 21.2754 173.792 23.0096 173.459 24.6827C173.126 26.3557 172.305 27.8926 171.099 29.0988C169.893 30.305 168.356 31.1265 166.683 31.4593C165.01 31.7921 163.275 31.6213 161.699 30.9685C160.123 30.3157 158.776 29.2102 157.829 27.7918C156.881 26.3734 156.375 24.7059 156.375 23C156.376 20.7129 157.285 18.5197 158.902 16.9025C160.52 15.2852 162.713 14.3761 165 14.375Z" fill="white"/>
<path fill-rule="evenodd" clip-rule="evenodd" d="M179.375 15.8125C179.375 13.9063 178.618 12.0781 177.27 10.7302C175.922 9.38225 174.094 8.625 172.188 8.625H157.812C155.906 8.625 154.078 9.38225 152.73 10.7302C151.382 12.0781 150.625 13.9063 150.625 15.8125V30.1875C150.625 32.0937 151.382 33.9219 152.73 35.2698C154.078 36.6177 155.906 37.375 157.812 37.375H172.188C174.094 37.375 175.922 36.6177 177.27 35.2698C178.618 33.9219 179.375 32.0937 179.375 30.1875V15.8125ZM182.25 15.8125C182.25 13.1438 181.19 10.5843 179.303 8.69724C177.416 6.81015 174.856 5.75 172.188 5.75H157.812C155.144 5.75 152.584 6.81015 150.697 8.69724C148.81 10.5843 147.75 13.1438 147.75 15.8125V30.1875C147.75 32.8562 148.81 35.4157 150.697 37.3028C152.584 39.1898 155.144 40.25 157.812 40.25H172.188C174.856 40.25 177.416 39.1898 179.303 37.3028C181.19 35.4157 182.25 32.8562 182.25 30.1875V15.8125Z" fill="white"/>
</g>
<path fill-rule="evenodd" clip-rule="evenodd" d="M105.5 46H82.5C79.45 46 76.5249 44.7884 74.3683 42.6317C72.2116 40.4751 71 37.55 71 34.5V11.5C71 8.45001 72.2116 5.52494 74.3683 3.36827C76.5249 1.2116 79.45 0 82.5 0H105.5C108.55 0 111.475 1.2116 113.632 3.36827C115.788 5.52494 117 8.45001 117 11.5V34.5C117 37.55 115.788 40.4751 113.632 42.6317C111.475 44.7884 108.55 46 105.5 46Z" fill="#00D264"/>
<path fill-rule="evenodd" clip-rule="evenodd" d="M92.5625 12.9375H105.5C107.16 12.9396 108.757 12.3036 109.961 11.1612C111.165 10.0188 111.883 8.45733 111.968 6.79979C112.053 5.14225 111.498 3.51548 110.417 2.25599C109.336 0.996491 107.812 0.20064 106.161 0.0330625C105.941 0.0208437 105.724 0 105.5 0H82.5C79.45 0 76.5249 1.2116 74.3683 3.36827C72.2116 5.52494 71 8.45001 71 11.5V34.5C71 28.7813 73.2718 23.2968 77.3155 19.253C81.3593 15.2093 86.8438 12.9375 92.5625 12.9375Z" fill="#00EB78"/>
<path fill-rule="evenodd" clip-rule="evenodd" d="M105.5 23C103.226 23 101.002 23.6745 99.1109 24.9381C97.2198 26.2017 95.7458 27.9978 94.8754 30.0991C94.005 32.2005 93.7772 34.5128 94.221 36.7435C94.6647 38.9743 95.76 41.0234 97.3683 42.6317C98.9766 44.24 101.026 45.3353 103.256 45.779C105.487 46.2228 107.8 45.995 109.901 45.1246C112.002 44.2542 113.798 42.7802 115.062 40.8891C116.326 38.9979 117 36.7745 117 34.5V11.5C117 14.55 115.788 17.4751 113.632 19.6317C111.475 21.7884 108.55 23 105.5 23Z" fill="#00B950"/>
<path fill-rule="evenodd" clip-rule="evenodd" d="M86.5775 33.8481C86.7688 33.7937 86.9693 33.7795 87.1664 33.8065C87.3634 33.8335 87.5528 33.901 87.7224 34.0048C90.5802 35.7074 93.9616 36.3072 97.2307 35.6914C100.5 35.0756 103.431 33.2865 105.474 30.6608C107.516 28.0351 108.529 24.7536 108.321 21.4336C108.114 18.1135 106.7 14.9837 104.347 12.6327C101.993 10.2817 98.8619 8.87165 95.5416 8.66767C92.2214 8.46369 88.941 9.47987 86.3174 11.5251C83.6939 13.5703 81.908 16.5036 81.2956 19.7733C80.6833 23.043 81.2867 26.4237 82.9923 29.2797C83.0958 29.4489 83.163 29.6377 83.1897 29.8341C83.2164 30.0306 83.2021 30.2305 83.1476 30.4211C82.7472 31.8377 81.7812 35.2187 81.7812 35.2187L86.5775 33.8481ZM80.5012 30.7151C78.4461 27.2509 77.7264 23.1558 78.4771 19.1985C79.2278 15.2413 81.3973 11.6942 84.5782 9.22341C87.7591 6.75258 91.7326 5.52795 95.7526 5.7795C99.7725 6.03104 103.562 7.74145 106.41 10.5895C109.259 13.4376 110.969 17.2275 111.221 21.2474C111.472 25.2674 110.247 29.2409 107.777 32.4218C105.306 35.6027 101.759 37.7722 97.8015 38.5229C93.8442 39.2736 89.7491 38.5539 86.2849 36.4988C86.2849 36.4988 81.7015 37.8084 79.4317 38.4574C79.3083 38.4926 79.1779 38.4941 79.0538 38.4619C78.9297 38.4297 78.8164 38.3649 78.7257 38.2743C78.6351 38.1836 78.5703 38.0703 78.5381 37.9462C78.5059 37.8221 78.5074 37.6917 78.5426 37.5683L80.5012 30.7151Z" fill="white"/>
<path fill-rule="evenodd" clip-rule="evenodd" d="M86.7988 17.8149C87.0224 21.0333 88.3959 24.064 90.6687 26.3537C92.9415 28.6434 95.9619 30.0393 99.1786 30.2867H99.18C99.6936 30.3264 100.21 30.2545 100.693 30.0758C101.176 29.8972 101.615 29.616 101.979 29.2517L102.481 28.75C102.717 28.513 102.85 28.1917 102.851 27.8566V26.7914C102.851 26.6579 102.813 26.5269 102.743 26.4133C102.673 26.2997 102.573 26.2079 102.453 26.1481L99.2483 24.546C99.1133 24.4784 98.9605 24.455 98.8115 24.4791C98.6625 24.5033 98.5249 24.5737 98.4182 24.6804L97.0238 26.0748C96.9401 26.1585 96.8371 26.2202 96.7239 26.2546C96.6107 26.2889 96.4908 26.2948 96.3748 26.2717L96.3683 26.2703C94.9768 25.9921 93.6988 25.3081 92.6953 24.3047C91.6919 23.3012 91.0079 22.0232 90.7297 20.6317L90.7283 20.6252C90.7052 20.5092 90.7111 20.3893 90.7454 20.2761C90.7798 20.1629 90.8415 20.0599 90.9252 19.9762L92.3196 18.5818C92.4263 18.4751 92.4967 18.3375 92.5209 18.1885C92.545 18.0395 92.5216 17.8866 92.454 17.7517L90.8519 14.5468C90.7921 14.4274 90.7003 14.3269 90.5867 14.2567C90.4731 14.1865 90.3421 14.1493 90.2086 14.1493H89.303C89.0879 14.1494 88.8753 14.1946 88.6788 14.282C88.4823 14.3694 88.3064 14.4971 88.1623 14.6567L87.6851 15.1872C87.3712 15.5354 87.1307 15.9433 86.9778 16.3865C86.825 16.8297 86.7629 17.2991 86.7952 17.7668L86.7988 17.8149Z" fill="white"/>
<path fill-rule="evenodd" clip-rule="evenodd" d="M23 46H11.5C8.45001 46 5.52494 44.7884 3.36827 42.6317C1.2116 40.4751 0 37.55 0 34.5V11.5C0 8.45001 1.2116 5.52494 3.36827 3.36827C5.52494 1.2116 8.45001 0 11.5 0H34.5C37.55 0 40.4751 1.2116 42.6317 3.36827C44.7884 5.52494 46 8.45001 46 11.5V34.5C46 37.55 44.7884 40.4751 42.6317 42.6317C40.4751 44.7884 37.55 46 34.5 46H30.1875C30.1875 45.0469 29.8089 44.1328 29.1349 43.4588C28.461 42.7849 27.5469 42.4062 26.5938 42.4062C25.6406 42.4062 24.7265 42.7849 24.0526 43.4588C23.3786 44.1328 23 45.0469 23 46Z" fill="#3764B9"/>
<path fill-rule="evenodd" clip-rule="evenodd" d="M21.5625 12.9375H34.5C36.1597 12.9396 37.7567 12.3036 38.9607 11.1612C40.1647 10.0188 40.8835 8.45733 40.9684 6.79979C41.0533 5.14225 40.4979 3.51548 39.417 2.25599C38.3361 0.996491 36.8125 0.20064 35.1612 0.0330625C34.9413 0.0208437 34.7235 0 34.5 0H11.5C8.45001 0 5.52494 1.2116 3.36827 3.36827C1.2116 5.52494 0 8.45001 0 11.5V34.5C0 28.7813 2.27176 23.2968 6.31551 19.253C10.3593 15.2093 15.8438 12.9375 21.5625 12.9375Z" fill="#507DD2"/>
<path fill-rule="evenodd" clip-rule="evenodd" d="M34.5 23C32.2255 23 30.0021 23.6745 28.1109 24.9381C26.2198 26.2017 24.7458 27.9978 23.8754 30.0991C23.005 32.2005 22.7772 34.5128 23.221 36.7435C23.6647 38.9743 24.76 41.0234 26.3683 42.6317C27.9766 44.24 30.0257 45.3353 32.2565 45.779C34.4872 46.2228 36.7995 45.995 38.9009 45.1246C41.0022 44.2542 42.7983 42.7802 44.0619 40.8891C45.3255 38.9979 46 36.7745 46 34.5V11.5C46 14.55 44.7884 17.4751 42.6317 19.6317C40.4751 21.7884 37.55 23 34.5 23Z" fill="#1E4BA0"/>
<path fill-rule="evenodd" clip-rule="evenodd" d="M37.375 12.9375C37.375 13.3187 37.2235 13.6844 36.954 13.954C36.6844 14.2235 36.3187 14.375 35.9375 14.375H31.625C31.2438 14.375 30.8781 14.5264 30.6085 14.796C30.3389 15.0656 30.1875 15.4312 30.1875 15.8125V21.5625H35.6213C35.8339 21.5625 36.0439 21.6097 36.2361 21.7007C36.4283 21.7917 36.598 21.9242 36.7328 22.0886C36.8676 22.2531 36.9643 22.4454 37.0158 22.6517C37.0673 22.858 37.0724 23.0732 37.0307 23.2817L36.1682 27.5942C36.1031 27.9201 35.9271 28.2134 35.6701 28.4241C35.4131 28.6348 35.0911 28.75 34.7588 28.75H30.1875V46H23V28.75H18.6875C18.3063 28.75 17.9406 28.5985 17.671 28.329C17.4015 28.0594 17.25 27.6937 17.25 27.3125V23C17.25 22.6187 17.4015 22.2531 17.671 21.9835C17.9406 21.7139 18.3063 21.5625 18.6875 21.5625H23V15.8125C23 13.525 23.9087 11.3312 25.5262 9.7137C27.1437 8.0962 29.3375 7.1875 31.625 7.1875H35.9375C36.3187 7.1875 36.6844 7.33895 36.954 7.60853C37.2235 7.87812 37.375 8.24375 37.375 8.625V12.9375Z" fill="white"/>
<defs>
<clipPath id="clip0_1_2702">
<rect width="46" height="46" fill="white" transform="translate(142)"/>
</clipPath>
</defs>
</svg>
