<svg width="9" height="11" viewBox="0 0 9 11" fill="none" xmlns="http://www.w3.org/2000/svg">
<path d="M4.27776 0C1.91899 0 0 1.78711 0 3.98375C0 6.70986 3.82818 10.7119 3.99117 10.881C4.14426 11.0398 4.41154 11.0395 4.56436 10.881C4.72735 10.7119 8.55552 6.70986 8.55552 3.98375C8.55548 1.78711 6.63651 0 4.27776 0ZM4.27776 5.98809C3.09101 5.98809 2.12554 5.08895 2.12554 3.98375C2.12554 2.87856 3.09103 1.97944 4.27776 1.97944C5.4645 1.97944 6.42997 2.87858 6.42997 3.98377C6.42997 5.08897 5.4645 5.98809 4.27776 5.98809Z" fill="#5F5F5F"/>
</svg>
